<?xml version="1.0" encoding="UTF-8"?>
<svg id="Layer_1" data-name="Layer 1" xmlns="http://www.w3.org/2000/svg" viewBox="0 0 933.07 873.61">
  <defs>
    <style>
      .cls-1 {
        fill: #fff;
      }
    </style>
  </defs>
  <path class="cls-1" d="M187.99,873.61c-.18,0-.35-.03-.52-.1-.51-.21-.85-.71-.85-1.27v-62.2c0-.76,.61-1.37,1.37-1.37h62.2c.55,0,1.05,.33,1.27,.85,.21,.51,.09,1.1-.3,1.49l-62.2,62.2c-.26,.26-.61,.4-.97,.4Zm1.37-62.2v57.52l57.52-57.52h-57.52Zm60.83,62.2h-62.2c-.55,0-1.05-.33-1.27-.85-.21-.51-.09-1.1,.3-1.49l62.2-62.2c.39-.39,.98-.51,1.49-.3,.51,.21,.85,.71,.85,1.27v62.2c0,.76-.61,1.37-1.37,1.37Zm-58.89-2.74h57.52v-57.52l-57.52,57.52Zm58.89-59.46h-62.2c-.55,0-1.05-.33-1.27-.85-.21-.51-.09-1.1,.3-1.49l62.2-62.2c.39-.39,.98-.51,1.49-.3,.51,.21,.85,.71,.85,1.27v62.2c0,.76-.61,1.37-1.37,1.37Zm-58.89-2.74h57.52v-57.52l-57.52,57.52Zm58.89-121.67c-.36,0-.71-.14-.97-.4l-62.2-62.2c-.39-.39-.51-.98-.3-1.49,.21-.51,.71-.85,1.27-.85h62.2c.76,0,1.37,.61,1.37,1.37v62.2c0,.55-.33,1.05-.85,1.27-.17,.07-.35,.1-.52,.1Zm-58.89-62.2l57.52,57.52v-57.52h-57.52Zm58.89,62.2h-62.2c-.76,0-1.37-.61-1.37-1.37v-62.2c0-.55,.33-1.05,.85-1.27,.51-.21,1.1-.09,1.49,.3l62.2,62.2c.39,.39,.51,.98,.3,1.49-.21,.51-.71,.85-1.27,.85Zm-60.83-2.74h57.52l-57.52-57.52v57.52Zm60.83,64.95h-62.2c-.76,0-1.37-.61-1.37-1.37v-62.2c0-.55,.33-1.05,.85-1.27,.51-.21,1.1-.09,1.49,.3l62.2,62.2c.39,.39,.51,.98,.3,1.49-.21,.51-.71,.85-1.27,.85Zm-60.83-2.74h57.52l-57.52-57.52v57.52Zm-1.37,64.95c-.18,0-.35-.03-.52-.1-.51-.21-.85-.71-.85-1.27v-62.2c0-.76,.61-1.37,1.37-1.37h62.2c.55,0,1.05,.33,1.27,.85,.21,.51,.09,1.1-.3,1.49l-62.2,62.2c-.26,.26-.61,.4-.97,.4Zm1.37-62.2v57.52l57.52-57.52h-57.52Zm60.83,0c-.36,0-.71-.14-.97-.4l-62.2-62.2c-.39-.39-.51-.98-.3-1.49,.21-.51,.71-.85,1.27-.85h62.2c.76,0,1.37,.61,1.37,1.37v62.2c0,.55-.33,1.05-.85,1.27-.17,.07-.35,.1-.52,.1Zm-58.89-62.2l57.52,57.52v-57.52h-57.52Zm183.3,186.61c-.18,0-.35-.03-.52-.1-.51-.21-.85-.71-.85-1.27v-62.2c0-.76,.61-1.37,1.37-1.37h62.2c.55,0,1.05,.33,1.27,.85,.21,.51,.09,1.1-.3,1.49l-62.2,62.2c-.26,.26-.61,.4-.97,.4Zm1.37-62.2v57.52l57.52-57.52h-57.52Zm60.83,62.2h-62.2c-.55,0-1.05-.33-1.27-.85-.21-.51-.09-1.1,.3-1.49l62.2-62.2c.39-.39,.98-.51,1.49-.3,.51,.21,.85,.71,.85,1.27v62.2c0,.76-.61,1.37-1.37,1.37Zm-58.89-2.74h57.52v-57.52l-57.52,57.52Zm58.89-59.46h-62.2c-.55,0-1.05-.33-1.27-.85-.21-.51-.09-1.1,.3-1.49l62.2-62.2c.39-.39,.98-.51,1.49-.3,.51,.21,.85,.71,.85,1.27v62.2c0,.76-.61,1.37-1.37,1.37Zm-58.89-2.74h57.52v-57.52l-57.52,57.52Zm58.89-121.67c-.36,0-.71-.14-.97-.4l-62.2-62.2c-.39-.39-.51-.98-.3-1.49,.21-.51,.71-.85,1.27-.85h62.2c.76,0,1.37,.61,1.37,1.37v62.2c0,.55-.33,1.05-.85,1.27-.17,.07-.35,.1-.52,.1Zm-58.89-62.2l57.52,57.52v-57.52h-57.52Zm58.89,62.2h-62.2c-.76,0-1.37-.61-1.37-1.37v-62.2c0-.55,.33-1.05,.85-1.27,.51-.21,1.1-.09,1.49,.3l62.2,62.2c.39,.39,.51,.98,.3,1.49-.21,.51-.71,.85-1.27,.85Zm-60.83-2.74h57.52l-57.52-57.52v57.52Zm123.04,2.74c-.36,0-.71-.14-.97-.4l-62.2-62.2c-.39-.39-.51-.98-.3-1.49,.21-.51,.71-.85,1.27-.85h62.2c.76,0,1.37,.61,1.37,1.37v62.2c0,.55-.33,1.05-.85,1.27-.17,.07-.35,.1-.52,.1Zm-58.89-62.2l57.52,57.52v-57.52h-57.52Zm58.89,62.2h-62.2c-.76,0-1.37-.61-1.37-1.37v-62.2c0-.55,.33-1.05,.85-1.27,.51-.21,1.1-.09,1.49,.3l62.2,62.2c.39,.39,.51,.98,.3,1.49-.21,.51-.71,.85-1.27,.85Zm-60.83-2.74h57.52l-57.52-57.52v57.52Zm-63.58,2.74c-.36,0-.71-.14-.97-.4l-62.2-62.2c-.39-.39-.51-.98-.3-1.49,.21-.51,.71-.85,1.27-.85h62.2c.76,0,1.37,.61,1.37,1.37v62.2c0,.55-.33,1.05-.85,1.27-.17,.07-.35,.1-.52,.1Zm-58.89-62.2l57.52,57.52v-57.52h-57.52Zm58.89,62.2h-62.2c-.76,0-1.37-.61-1.37-1.37v-62.2c0-.55,.33-1.05,.85-1.27,.51-.21,1.1-.09,1.49,.3l62.2,62.2c.39,.39,.51,.98,.3,1.49-.21,.51-.71,.85-1.27,.85Zm-60.83-2.74h57.52l-57.52-57.52v57.52Zm123.04,64.95c-.36,0-.71-.14-.97-.4l-62.2-62.2c-.39-.39-.51-.98-.3-1.49,.21-.51,.71-.85,1.27-.85h62.2c.76,0,1.37,.61,1.37,1.37v62.2c0,.55-.33,1.05-.85,1.27-.17,.07-.35,.1-.52,.1Zm-58.89-62.2l57.52,57.52v-57.52h-57.52Zm58.89,62.2h-62.2c-.76,0-1.37-.61-1.37-1.37v-62.2c0-.55,.33-1.05,.85-1.27,.51-.21,1.1-.09,1.49,.3l62.2,62.2c.39,.39,.51,.98,.3,1.49-.21,.51-.71,.85-1.27,.85Zm-60.83-2.74h57.52l-57.52-57.52v57.52Zm-1.37,64.95c-.18,0-.35-.03-.52-.1-.51-.21-.85-.71-.85-1.27v-62.2c0-.76,.61-1.37,1.37-1.37h62.2c.55,0,1.05,.33,1.27,.85,.21,.51,.09,1.1-.3,1.49l-62.2,62.2c-.26,.26-.61,.4-.97,.4Zm1.37-62.2v57.52l57.52-57.52h-57.52ZM63.58,873.61c-.18,0-.35-.03-.52-.1-.51-.21-.85-.71-.85-1.27v-62.2c0-.76,.61-1.37,1.37-1.37h62.2c.55,0,1.05,.33,1.27,.85,.21,.51,.09,1.1-.3,1.49l-62.2,62.2c-.26,.26-.61,.4-.97,.4Zm1.37-62.2v57.52l57.52-57.52h-57.52Zm60.83,62.2H63.58c-.55,0-1.05-.33-1.27-.85-.21-.51-.09-1.1,.3-1.49l62.2-62.2c.39-.39,.98-.51,1.49-.3,.51,.21,.85,.71,.85,1.27v62.2c0,.76-.61,1.37-1.37,1.37Zm-58.89-2.74h57.52v-57.52l-57.52,57.52Zm-3.31-59.46H1.37c-.55,0-1.05-.33-1.27-.85-.21-.51-.09-1.1,.3-1.49l62.2-62.2c.39-.39,.98-.51,1.49-.3,.51,.21,.85,.71,.85,1.27v62.2c0,.76-.61,1.37-1.37,1.37Zm-58.89-2.74H62.2v-57.52l-57.52,57.52Zm58.89-121.67c-.36,0-.71-.14-.97-.4L.4,624.39c-.39-.39-.51-.98-.3-1.49,.21-.51,.71-.85,1.27-.85H63.58c.76,0,1.37,.61,1.37,1.37v62.2c0,.55-.33,1.05-.85,1.27-.17,.07-.35,.1-.52,.1Zm-58.89-62.2l57.52,57.52v-57.52H4.68Zm58.89,62.2H1.37c-.76,0-1.37-.61-1.37-1.37v-62.2c0-.55,.33-1.05,.85-1.27,.51-.21,1.1-.09,1.49,.3l62.2,62.2c.39,.39,.51,.98,.3,1.49-.21,.51-.71,.85-1.27,.85Zm-60.83-2.74H60.26L2.74,626.73v57.52Zm60.83,189.36c-.36,0-.71-.14-.97-.4L.4,811c-.39-.39-.51-.98-.3-1.49,.21-.51,.71-.85,1.27-.85H63.58c.76,0,1.37,.61,1.37,1.37v62.2c0,.55-.33,1.05-.85,1.27-.17,.07-.35,.1-.52,.1Zm-58.89-62.2l57.52,57.52v-57.52H4.68Zm58.89,62.2H1.37c-.76,0-1.37-.61-1.37-1.37v-62.2c0-.55,.33-1.05,.85-1.27,.51-.21,1.1-.09,1.49,.3l62.2,62.2c.39,.39,.51,.98,.3,1.49-.21,.51-.71,.85-1.27,.85Zm-60.83-2.74H60.26L2.74,813.34v57.52Zm60.83-121.67c-.36,0-.71-.14-.97-.4L.4,686.59c-.39-.39-.51-.98-.3-1.49,.21-.51,.71-.85,1.27-.85H63.58c.76,0,1.37,.61,1.37,1.37v62.2c0,.55-.33,1.05-.85,1.27-.17,.07-.35,.1-.52,.1Zm-58.89-62.2l57.52,57.52v-57.52H4.68Zm58.89,62.2H1.37c-.76,0-1.37-.61-1.37-1.37v-62.2c0-.55,.33-1.05,.85-1.27,.51-.21,1.1-.09,1.49,.3l62.2,62.2c.39,.39,.51,.98,.3,1.49-.21,.51-.71,.85-1.27,.85Zm-60.83-2.74H60.26L2.74,688.93v57.52Zm-1.37,64.95c-.18,0-.35-.03-.52-.1-.51-.21-.85-.71-.85-1.27v-62.2c0-.76,.61-1.37,1.37-1.37H63.58c.55,0,1.05,.33,1.27,.85,.21,.51,.09,1.1-.3,1.49L2.34,811c-.26,.26-.61,.4-.97,.4Zm1.37-62.2v57.52l57.52-57.52H2.74Zm620.67,62.21c-.18,0-.35-.03-.52-.1-.51-.21-.85-.71-.85-1.27v-62.2c0-.76,.61-1.37,1.37-1.37h62.2c.55,0,1.05,.33,1.27,.85,.21,.51,.09,1.1-.3,1.49l-62.2,62.2c-.26,.26-.61,.4-.97,.4Zm1.37-62.2v57.52l57.52-57.52h-57.52Zm-1.37,62.2c-.36,0-.71-.14-.97-.4l-62.2-62.2c-.39-.39-.51-.98-.3-1.49,.21-.51,.71-.85,1.27-.85h62.2c.76,0,1.37,.61,1.37,1.37v62.2c0,.55-.33,1.05-.85,1.27-.17,.07-.35,.1-.52,.1Zm-58.89-62.2l57.52,57.52v-57.52h-57.52Zm58.89,124.41c-.36,0-.71-.14-.97-.4l-62.2-62.2c-.39-.39-.51-.98-.3-1.49,.21-.51,.71-.85,1.27-.85h62.2c.76,0,1.37,.61,1.37,1.37v62.2c0,.55-.33,1.05-.85,1.27-.17,.07-.35,.1-.52,.1Zm-58.89-62.2l57.52,57.52v-57.52h-57.52Zm58.89,62.2h-62.2c-.76,0-1.37-.61-1.37-1.37v-62.2c0-.55,.33-1.05,.85-1.27,.51-.21,1.1-.09,1.49,.3l62.2,62.2c.39,.39,.51,.98,.3,1.49-.21,.51-.71,.85-1.27,.85Zm-60.83-2.74h57.52l-57.52-57.52v57.52Zm60.83-59.46h-62.2c-.76,0-1.37-.61-1.37-1.37v-62.2c0-.55,.33-1.05,.85-1.27,.51-.21,1.1-.09,1.49,.3l62.2,62.2c.39,.39,.51,.98,.3,1.49-.21,.51-.71,.85-1.27,.85Zm-60.83-2.74h57.52l-57.52-57.52v57.52Zm60.83-121.67c-.18,0-.35-.03-.52-.1-.51-.21-.85-.71-.85-1.27v-62.2c0-.76,.61-1.37,1.37-1.37h62.2c.55,0,1.05,.33,1.27,.85,.21,.51,.09,1.1-.3,1.49l-62.2,62.2c-.26,.26-.61,.4-.97,.4Zm1.37-62.2v57.52l57.52-57.52h-57.52Zm60.83,62.2h-62.2c-.55,0-1.05-.33-1.27-.85-.21-.51-.09-1.1,.3-1.49l62.2-62.2c.39-.39,.98-.51,1.49-.3,.51,.21,.85,.71,.85,1.27v62.2c0,.76-.61,1.37-1.37,1.37Zm-58.89-2.74h57.52v-57.52s-57.52,57.52-57.52,57.52Zm-65.52,64.95c-.18,0-.35-.03-.52-.1-.51-.21-.85-.71-.85-1.27v-62.2c0-.76,.61-1.37,1.37-1.37h62.2c.55,0,1.05,.33,1.27,.85,.21,.51,.09,1.1-.3,1.49l-62.2,62.2c-.26,.26-.61,.4-.97,.4Zm1.37-62.2v57.52l57.52-57.52h-57.52Zm60.83,0h-62.2c-.55,0-1.05-.33-1.27-.85-.21-.51-.09-1.1,.3-1.49l62.2-62.2c.39-.39,.98-.51,1.49-.3,.51,.21,.85,.71,.85,1.27v62.2c0,.76-.61,1.37-1.37,1.37Zm-58.89-2.74h57.52v-57.52l-57.52,57.52Zm58.89,64.95h-62.2c-.55,0-1.05-.33-1.27-.85-.21-.51-.09-1.1,.3-1.49l62.2-62.2c.39-.39,.98-.51,1.49-.3,.51,.21,.85,.71,.85,1.27v62.2c0,.76-.61,1.37-1.37,1.37Zm-58.89-2.74h57.52v-57.52l-57.52,57.52Zm121.1,127.15h-62.2c-.76,0-1.37-.61-1.37-1.37v-62.2c0-.55,.33-1.05,.85-1.27,.51-.21,1.1-.09,1.49,.3l62.2,62.2c.39,.39,.51,.98,.3,1.49-.21,.51-.71,.85-1.27,.85Zm-60.83-2.74h57.52l-57.52-57.52v57.52Zm60.83,2.74c-.36,0-.71-.14-.97-.4l-62.2-62.2c-.39-.39-.51-.98-.3-1.49,.21-.51,.71-.85,1.27-.85h62.2c.76,0,1.37,.61,1.37,1.37v62.2c0,.55-.33,1.05-.85,1.27-.17,.07-.35,.1-.52,.1Zm-58.89-62.2l57.52,57.52v-57.52h-57.52Zm58.89-62.2h-62.2c-.76,0-1.37-.61-1.37-1.37v-62.2c0-.55,.33-1.05,.85-1.27,.51-.21,1.1-.09,1.49,.3l62.2,62.2c.39,.39,.51,.98,.3,1.49-.21,.51-.71,.85-1.27,.85Zm-60.83-2.74h57.52l-57.52-57.52v57.52Zm-63.58-59.46c-.18,0-.35-.03-.52-.1-.51-.21-.85-.71-.85-1.27v-62.2c0-.76,.61-1.37,1.37-1.37h62.2c.55,0,1.05,.33,1.27,.85,.21,.51,.09,1.1-.3,1.49l-62.2,62.2c-.26,.26-.61,.4-.97,.4Zm1.37-62.2v57.52l57.52-57.52h-57.52Zm186.62-189.36v57.52l57.52-57.52h-57.52Zm-60.27,0l57.52,57.52v-57.52h-57.52Zm-1.94,62.2v57.52l57.52-57.52h-57.52Zm126.35-64.95h57.52v-57.52l-57.52,57.52Zm-62.21,64.94l57.52,57.52v-57.52h-57.52Zm0-2.74h57.52v-57.52l-57.52,57.52Zm-64.14,0h57.52l-57.52-57.52v57.52Zm64.14-121.66l57.52,57.52v-57.52h-57.52Zm-1.94-2.74h57.52l-57.52-57.52v57.52Zm-62.2-59.46v57.52l57.52-57.52h-57.52Zm0,62.2v57.52l57.52-57.52h-57.52Zm1.94-2.74h57.52v-57.52l-57.52,57.52Zm0,62.21h57.52v-57.52l-57.52,57.52Zm60.27,0h57.52l-57.52-57.52v57.52Zm124.41,2.74v57.52l57.52-57.52h-57.52Zm1.94,62.2l57.52,57.52v-57.52h-57.52Zm0-2.74h57.52v-57.52l-57.52,57.52Zm0-121.66l57.52,57.52v-57.52h-57.52Zm0-2.74h57.52v-57.52l-57.52,57.52Zm-1.94-59.46v57.52l57.52-57.52h-57.52Zm0,121.67h57.52l-57.52-57.52v57.52Zm-62.21,62.2h57.52l-57.52-57.52v57.52Zm0,2.74v57.52l57.52-57.52h-57.52Zm1.94-62.2l57.52,57.52v-57.52h-57.52Zm0-64.95h57.52v-57.52l-57.52,57.52Zm-1.94,2.74v57.52l57.52-57.52h-57.52Zm-684.25,0v57.52l57.52-57.52h-57.52Zm0,121.66h57.52l-57.52-57.52v57.52Zm-60.27-121.66l57.52,57.52v-57.52h-57.52Zm0-2.74h57.52v-57.52l-57.52,57.52Zm60.27,0h57.52l-57.52-57.52v57.52Zm-62.21,64.95v57.52l57.52-57.52h-57.52Zm0-2.74h57.52l-57.52-57.52v57.52Zm-60.26,0H62.21v-57.52L4.68,432.69Zm0,2.74l57.52,57.52v-57.52H4.69Zm62.2,62.21l57.52,57.52v-57.52h-57.52Zm0-2.74h57.52v-57.52l-57.52,57.52Zm60.26,2.74v57.52l57.52-57.52h-57.52Zm-62.2,59.46h57.52l-57.52-57.52v57.52Zm-60.26,0H62.21v-57.52s-57.52,57.52-57.52,57.52Zm-1.94-59.46v57.52s57.52-57.52,57.52-57.52H2.75Zm0-2.74H60.27L2.75,437.37v57.52Zm0-121.66v57.52l57.52-57.52H2.75Zm0-2.75H60.27L2.75,312.96v57.52Zm62.21-59.46v57.52l57.52-57.52h-57.52Zm-60.27,0l57.52,57.52v-57.52H4.68Zm309.08,124.41v57.52l57.52-57.52h-57.52Zm-60.27,0l57.52,57.52v-57.52h-57.52Zm0,62.2l57.52,57.52v-57.52h-57.52Zm-1.94,59.46h57.52l-57.52-57.52v57.52Zm0-62.2h57.52l-57.52-57.52v57.52Zm62.21-183.87v57.52l57.52-57.52h-57.52Zm1.94,59.46h57.52v-57.52s-57.52,57.52-57.52,57.52Zm-64.15,2.74v57.52l57.52-57.52h-57.52Zm1.94-2.74h57.52v-57.52l-57.52,57.52Zm0,62.2h57.52v-57.52l-57.52,57.52Zm60.27,124.41h57.52l-57.52-57.52v57.52Zm1.94-59.46l57.52,57.52v-57.52h-57.52Zm-1.94-64.95h57.52l-57.52-57.52v57.52Zm-62.21-121.66v57.52l57.52-57.52h-57.52ZM873.61,124.41v57.52l57.52-57.52h-57.52Zm-122.47,0l57.52,57.52v-57.52h-57.52Zm0,62.2l57.52,57.52v-57.52h-57.52Zm-1.94,59.46h57.52l-57.52-57.52v57.52Zm0-62.2h57.52l-57.52-57.52v57.52ZM873.61,0V57.52S931.13,0,931.13,0h-57.52Zm-124.41,62.2v57.52l57.52-57.52h-57.52Zm1.94-2.74h57.52V1.94l-57.52,57.52Zm0,62.2h57.52v-57.52l-57.52,57.52Zm122.47,124.41h57.52l-57.52-57.52v57.52Zm0-124.41h57.52l-57.52-57.52v57.52ZM749.2,0V57.52L806.72,0h-57.52Zm64.14,183.87h57.52v-57.52l-57.52,57.52Zm0,2.74l57.52,57.52v-57.52h-57.52Zm-1.94,59.46h57.52l-57.52-57.52v57.52Zm0-121.66v57.52l57.52-57.52h-57.52Zm0-2.74h57.52l-57.52-57.52v57.52Zm1.94-62.2h57.52V1.94l-57.52,57.52Zm0,2.74l57.52,57.52V62.2h-57.52ZM811.4,0V57.52L868.93,0h-57.52ZM66.89,124.41l57.52,57.52v-57.52h-57.52Zm-62.2,0l57.52,57.52v-57.52H4.68Zm0,62.2l57.52,57.52v-57.52H4.68Zm60.26,0v57.52l57.52-57.52h-57.52Zm1.94,59.46h57.52v-57.52l-57.52,57.52Zm-1.94-62.2h57.52l-57.52-57.52v57.52Zm-62.21,0H60.26L2.74,126.35v57.52Zm62.2-62.2h57.52l-57.52-57.52v57.52ZM66.89,0l57.52,57.52V0h-57.52Zm-1.94,59.46h57.52L64.95,1.94V59.46ZM2.74,62.2v57.52L60.26,62.2H2.74Zm1.94-2.74H62.2V1.94L4.68,59.46Zm0,62.21H62.2v-57.52L4.68,121.67Zm62.2-59.46l57.52,57.52V62.2h-57.52Zm60.27,121.67h57.52l-57.52-57.52v57.52Zm0,2.74v57.52l57.52-57.52h-57.52Zm0-127.15h57.52L127.16,1.94V59.46Zm0,2.74v57.52l57.52-57.52h-57.52Zm186.61,62.2v57.52l57.52-57.52h-57.52Zm-60.27,0l57.52,57.52v-57.52h-57.52Zm0,62.2l57.52,57.52v-57.52h-57.52Zm60.27,59.46h57.52l-57.52-57.52v57.52Zm1.94-59.46l57.52,57.52v-57.52h-57.52Zm0-2.74h57.52v-57.52l-57.52,57.52Zm-64.14,0h57.52l-57.52-57.52v57.52Zm64.14-121.67l57.52,57.52V62.21h-57.52Zm0-2.74h57.52V1.94l-57.52,57.52Zm-1.94-59.46V57.52L371.29,0h-57.52Zm-62.2,62.2v57.52l57.52-57.52h-57.52Zm1.94-2.74h57.52V1.94l-57.52,57.52Zm0,62.2h57.52v-57.52l-57.52,57.52Zm124.41,2.74l57.52,57.52v-57.52h-57.52Zm0-2.74h57.52v-57.52l-57.52,57.52Zm-64.14,0h57.52l-57.52-57.52v57.52Zm62.21,62.21h57.52l-57.52-57.52v57.52Zm0,2.74v57.52l57.52-57.52h-57.52Zm0-127.15h57.52L375.97,1.94V59.46Zm0,2.74v57.52l57.52-57.52h-57.52Zm186.61,62.21v57.52l57.52-57.52h-57.52Zm-60.26,0l57.52,57.52v-57.52h-57.52Zm0,121.66h57.52v-57.52l-57.52,57.52Zm60.26,0h57.52l-57.52-57.52v57.52Zm-62.2-59.46v57.52l57.52-57.52h-57.52Zm64.14,0l57.52,57.52v-57.52h-57.52Zm0-2.74h57.52v-57.52l-57.52,57.52Zm-64.14,0h57.52l-57.52-57.52v57.52Zm64.14-121.67l57.52,57.52V62.21h-57.52Zm0-2.74h57.52V1.94l-57.52,57.52ZM562.59,0V57.52L620.11,0h-57.52Zm-62.2,62.2v57.52l57.52-57.52h-57.52Zm1.94-2.74h57.52V1.94l-57.52,57.52Zm0,62.21h57.52v-57.52l-57.52,57.52Zm124.41,2.74l57.52,57.52v-57.52h-57.52Zm0-2.74h57.52v-57.52l-57.52,57.52Zm-64.14,0h57.52l-57.52-57.52v57.52Zm62.21,62.2h57.52l-57.52-57.52v57.52Zm0,2.74v57.52l57.52-57.52h-57.52Zm0-127.15h57.52L624.79,1.94V59.46Zm0,2.74v57.52l57.52-57.52h-57.52ZM500.38,0V57.52L557.9,0h-57.52Zm-60.27,370.48h57.52v-57.52l-57.52,57.52Zm0,62.3h57.52v-57.52l-57.52,57.52Zm-1.94-59.46v57.52l57.52-57.52h-57.52Zm0,124.41v57.52l57.52-57.52h-57.52Zm1.94-62.2l57.52,57.52v-57.52h-57.52Zm-1.94,59.46h57.52l-57.52-57.52v57.52Zm62.2,0h57.52l-57.52-57.52v57.52Zm64.14-62.2h57.52v-57.52l-57.52,57.52Zm-1.94-59.46v57.52l57.52-57.52h-57.52Zm0,121.67h57.52l-57.52-57.52v57.52Zm1.94-59.46l57.52,57.52v-57.52h-57.52Zm0,62.21l57.52,57.52v-57.52h-57.52Zm-1.94-127.25h57.52l-57.52-57.52v57.52Zm-62.2,0h57.52l-57.52-57.52v57.52Zm1.94-59.46l57.52,57.52v-57.52h-57.52Zm29.73,154.24l27.79,27.79v-55.58l-27.79,27.79Zm-29.73-91.93l57.52,57.52v-57.52h-57.52Zm-1.94,1.94v55.58l27.79-27.79-27.79-27.79Z"/>
</svg>