<?xml version="1.0" encoding="utf-8"?>
<!-- Generator: Adobe Illustrator 16.0.3, SVG Export Plug-In . SVG Version: 6.00 Build 0)  -->
<!DOCTYPE svg PUBLIC "-//W3C//DTD SVG 1.1//EN" "http://www.w3.org/Graphics/SVG/1.1/DTD/svg11.dtd">
<svg version="1.1" id="Warstwa_1" xmlns="http://www.w3.org/2000/svg" xmlns:xlink="http://www.w3.org/1999/xlink" x="0px" y="0px"
	 width="598.471px" height="680.966px" viewBox="0 0 598.471 680.966" enable-background="new 0 0 598.471 680.966"
	 xml:space="preserve">
<g>
	<g>
		<g>
			<path fill="#FFFFFF" d="M166.383,501.888c-0.083,0-0.168-0.016-0.248-0.049c-0.243-0.101-0.401-0.338-0.401-0.601v-29.46
				c0-0.358,0.291-0.649,0.649-0.649h29.461c0.263,0,0.5,0.158,0.6,0.401c0.101,0.243,0.046,0.522-0.141,0.708l-29.46,29.46
				C166.719,501.822,166.553,501.888,166.383,501.888z M167.033,472.427v27.243l27.242-27.243H167.033z"/>
		</g>
		<g>
			<path fill="#FFFFFF" d="M195.844,501.887h-29.461c-0.262,0-0.5-0.158-0.6-0.401c-0.101-0.242-0.045-0.522,0.141-0.708
				l29.461-29.46c0.186-0.185,0.464-0.241,0.708-0.14c0.242,0.1,0.4,0.337,0.4,0.6v29.46
				C196.493,501.596,196.202,501.887,195.844,501.887z M167.951,500.588h27.242v-27.243L167.951,500.588z"/>
		</g>
		<g>
			<path fill="#FFFFFF" d="M195.844,472.427h-29.461c-0.262,0-0.5-0.158-0.6-0.401c-0.101-0.243-0.045-0.522,0.141-0.708
				l29.461-29.46c0.186-0.186,0.464-0.241,0.708-0.141c0.242,0.1,0.4,0.337,0.4,0.6v29.46
				C196.493,472.136,196.202,472.427,195.844,472.427z M167.951,471.128h27.242v-27.243L167.951,471.128z"/>
		</g>
		<g>
			<path fill="#FFFFFF" d="M195.843,413.505c-0.169,0-0.335-0.066-0.458-0.19l-29.461-29.459c-0.187-0.186-0.242-0.465-0.142-0.708
				c0.101-0.242,0.338-0.4,0.601-0.4h29.46c0.359,0,0.649,0.291,0.649,0.649v29.46c0,0.263-0.157,0.5-0.4,0.6
				C196.012,413.489,195.927,413.505,195.843,413.505z M167.951,384.045l27.242,27.242v-27.242H167.951z"/>
		</g>
		<g>
			<path fill="#FFFFFF" d="M195.843,413.505h-29.46c-0.358,0-0.649-0.291-0.649-0.649v-29.46c0-0.263,0.158-0.5,0.401-0.6
				c0.243-0.101,0.521-0.045,0.708,0.14l29.46,29.46c0.185,0.186,0.241,0.465,0.141,0.708S196.105,413.505,195.843,413.505z
				 M167.033,412.206h27.242l-27.242-27.243V412.206z"/>
		</g>
		<g>
			<path fill="#FFFFFF" d="M195.843,442.966h-29.46c-0.358,0-0.649-0.291-0.649-0.649v-29.46c0-0.262,0.158-0.5,0.401-0.6
				c0.243-0.101,0.521-0.045,0.708,0.14l29.46,29.46c0.185,0.186,0.241,0.466,0.141,0.708
				C196.343,442.808,196.105,442.966,195.843,442.966z M167.033,441.667h27.242l-27.242-27.243V441.667z"/>
		</g>
		<g>
			<path fill="#FFFFFF" d="M166.383,472.427c-0.083,0-0.168-0.016-0.248-0.049c-0.243-0.101-0.401-0.338-0.401-0.601v-29.46
				c0-0.359,0.291-0.649,0.649-0.649h29.46c0.263,0,0.5,0.158,0.601,0.401c0.101,0.243,0.044,0.522-0.141,0.708l-29.46,29.46
				C166.719,472.361,166.553,472.427,166.383,472.427z M167.033,442.966v27.243l27.242-27.243H167.033z"/>
		</g>
		<g>
			<path fill="#FFFFFF" d="M195.843,442.966c-0.169,0-0.335-0.066-0.459-0.19l-29.46-29.461c-0.187-0.186-0.241-0.465-0.142-0.708
				c0.101-0.243,0.338-0.401,0.601-0.401h29.46c0.358,0,0.649,0.291,0.649,0.65v29.46c0,0.263-0.158,0.5-0.401,0.6
				C196.011,442.95,195.927,442.966,195.843,442.966z M167.951,413.505l27.242,27.243v-27.243H167.951z"/>
		</g>
		<g>
			<path fill="#FFFFFF" d="M254.765,501.888c-0.083,0-0.168-0.017-0.249-0.049c-0.242-0.101-0.4-0.337-0.4-0.6v-29.461
				c0-0.359,0.291-0.649,0.65-0.649h29.46c0.263,0,0.5,0.158,0.601,0.401c0.1,0.243,0.045,0.522-0.142,0.708l-29.46,29.46
				C255.101,501.822,254.935,501.888,254.765,501.888z M255.414,472.427v27.243l27.243-27.243H255.414z"/>
		</g>
		<g>
			<path fill="#FFFFFF" d="M284.226,501.888h-29.46c-0.264,0-0.5-0.159-0.601-0.401c-0.101-0.243-0.045-0.522,0.141-0.708
				l29.46-29.46c0.187-0.186,0.465-0.241,0.709-0.141c0.242,0.101,0.4,0.337,0.4,0.6v29.46
				C284.875,501.597,284.585,501.888,284.226,501.888z M256.333,500.588h27.243v-27.243L256.333,500.588z"/>
		</g>
		<g>
			<path fill="#FFFFFF" d="M284.226,472.427h-29.46c-0.264,0-0.5-0.158-0.601-0.4c-0.101-0.243-0.045-0.522,0.141-0.708
				l29.46-29.459c0.187-0.186,0.465-0.241,0.709-0.141c0.242,0.101,0.4,0.337,0.4,0.6v29.46
				C284.875,472.137,284.585,472.427,284.226,472.427z M256.333,471.128h27.243v-27.243L256.333,471.128z"/>
		</g>
		<g>
			<path fill="#FFFFFF" d="M284.226,413.505c-0.17,0-0.335-0.066-0.46-0.19l-29.46-29.46c-0.187-0.186-0.242-0.465-0.142-0.708
				c0.102-0.243,0.338-0.401,0.6-0.401h29.461c0.359,0,0.65,0.291,0.65,0.649v29.46c0,0.263-0.158,0.5-0.4,0.601
				C284.394,413.489,284.309,413.505,284.226,413.505z M256.333,384.045l27.243,27.243v-27.243H256.333z"/>
		</g>
		<g>
			<path fill="#FFFFFF" d="M284.225,413.505h-29.459c-0.359,0-0.65-0.291-0.65-0.649v-29.46c0-0.262,0.158-0.499,0.4-0.6
				c0.244-0.101,0.523-0.045,0.709,0.141l29.46,29.459c0.186,0.186,0.241,0.466,0.14,0.708
				C284.726,413.347,284.487,413.505,284.225,413.505z M255.414,412.206h27.243l-27.243-27.242V412.206z"/>
		</g>
		<g>
			<path fill="#FFFFFF" d="M313.686,413.505c-0.168,0-0.334-0.066-0.458-0.19l-29.462-29.46c-0.185-0.186-0.24-0.465-0.141-0.708
				c0.101-0.243,0.338-0.401,0.601-0.401h29.46c0.359,0,0.65,0.291,0.65,0.649v29.46c0,0.263-0.158,0.5-0.401,0.601
				C313.854,413.489,313.77,413.505,313.686,413.505z M285.794,384.045l27.243,27.243v-27.243H285.794z"/>
		</g>
		<g>
			<path fill="#FFFFFF" d="M313.686,413.505h-29.459c-0.358,0-0.649-0.291-0.649-0.649v-29.46c0-0.262,0.158-0.499,0.401-0.6
				s0.521-0.045,0.707,0.141l29.46,29.459c0.186,0.186,0.241,0.466,0.141,0.708C314.186,413.347,313.948,413.505,313.686,413.505z
				 M284.876,412.206h27.242l-27.242-27.242V412.206z"/>
		</g>
		<g>
			<path fill="#FFFFFF" d="M254.764,413.505c-0.168,0-0.334-0.066-0.458-0.19l-29.461-29.46c-0.186-0.186-0.241-0.465-0.142-0.708
				c0.102-0.243,0.338-0.401,0.602-0.401h29.459c0.359,0,0.65,0.291,0.65,0.649v29.46c0,0.263-0.158,0.5-0.401,0.601
				C254.933,413.489,254.848,413.505,254.764,413.505z M226.873,384.045l27.242,27.243v-27.243H226.873z"/>
		</g>
		<g>
			<path fill="#FFFFFF" d="M254.764,413.505h-29.459c-0.359,0-0.649-0.291-0.649-0.649v-29.46c0-0.262,0.158-0.499,0.401-0.6
				c0.242-0.101,0.521-0.045,0.707,0.141l29.46,29.459c0.186,0.186,0.241,0.466,0.141,0.708
				C255.264,413.347,255.026,413.505,254.764,413.505z M225.954,412.206h27.242l-27.242-27.242V412.206z"/>
		</g>
		<g>
			<path fill="#FFFFFF" d="M284.226,442.966c-0.17,0-0.335-0.066-0.46-0.19l-29.46-29.46c-0.187-0.186-0.242-0.465-0.142-0.708
				c0.102-0.243,0.338-0.401,0.6-0.401h29.461c0.359,0,0.65,0.291,0.65,0.649v29.46c0,0.263-0.158,0.5-0.4,0.601
				C284.394,442.95,284.309,442.966,284.226,442.966z M256.333,413.506l27.243,27.243v-27.243H256.333z"/>
		</g>
		<g>
			<path fill="#FFFFFF" d="M284.225,442.966h-29.459c-0.359,0-0.65-0.291-0.65-0.649v-29.46c0-0.262,0.158-0.5,0.4-0.6
				c0.244-0.101,0.523-0.045,0.709,0.14l29.46,29.46c0.186,0.186,0.241,0.466,0.14,0.708
				C284.726,442.808,284.487,442.966,284.225,442.966z M255.414,441.667h27.243l-27.243-27.243V441.667z"/>
		</g>
		<g>
			<path fill="#FFFFFF" d="M254.765,472.427c-0.083,0-0.168-0.016-0.249-0.049c-0.242-0.1-0.4-0.337-0.4-0.6v-29.46
				c0-0.359,0.291-0.65,0.65-0.65h29.459c0.263,0,0.501,0.159,0.6,0.401c0.102,0.243,0.046,0.522-0.14,0.708l-29.46,29.461
				C255.101,472.361,254.935,472.427,254.765,472.427z M255.414,442.966v27.243l27.243-27.243H255.414z"/>
		</g>
		<g>
			<path fill="#FFFFFF" d="M107.461,501.888c-0.083,0-0.167-0.016-0.248-0.049c-0.242-0.101-0.4-0.338-0.4-0.601v-29.46
				c0-0.358,0.29-0.649,0.649-0.649h29.46c0.263,0,0.5,0.158,0.6,0.401c0.102,0.243,0.045,0.522-0.141,0.708l-29.46,29.46
				C107.797,501.822,107.631,501.888,107.461,501.888z M108.111,472.427v27.243l27.242-27.243H108.111z"/>
		</g>
		<g>
			<path fill="#FFFFFF" d="M136.922,501.887h-29.46c-0.264,0-0.5-0.158-0.601-0.401c-0.1-0.242-0.045-0.522,0.142-0.708l29.46-29.46
				c0.186-0.185,0.465-0.241,0.708-0.14c0.243,0.1,0.4,0.337,0.4,0.6v29.46C137.571,501.596,137.281,501.887,136.922,501.887z
				 M109.029,500.588h27.243v-27.243L109.029,500.588z"/>
		</g>
		<g>
			<path fill="#FFFFFF" d="M107.461,472.427h-29.46c-0.263,0-0.499-0.158-0.601-0.401c-0.1-0.243-0.045-0.522,0.142-0.708
				l29.46-29.46c0.186-0.186,0.465-0.241,0.708-0.141c0.242,0.1,0.401,0.337,0.401,0.6v29.46
				C108.111,472.136,107.82,472.427,107.461,472.427z M79.568,471.128h27.244v-27.243L79.568,471.128z"/>
		</g>
		<g>
			<path fill="#FFFFFF" d="M107.461,413.505c-0.169,0-0.335-0.066-0.46-0.19l-29.46-29.459c-0.186-0.186-0.241-0.465-0.141-0.708
				c0.101-0.242,0.338-0.4,0.601-0.4h29.46c0.358,0,0.649,0.291,0.649,0.649v29.46c0,0.263-0.159,0.5-0.401,0.6
				C107.629,413.489,107.545,413.505,107.461,413.505z M79.568,384.045l27.242,27.242v-27.242H79.568z"/>
		</g>
		<g>
			<path fill="#FFFFFF" d="M107.461,413.505h-29.46c-0.358,0-0.649-0.291-0.649-0.649v-29.46c0-0.263,0.158-0.5,0.4-0.6
				c0.244-0.101,0.522-0.045,0.709,0.14l29.459,29.46c0.186,0.186,0.241,0.465,0.142,0.708
				C107.96,413.347,107.724,413.505,107.461,413.505z M78.651,412.206h27.241l-27.241-27.243V412.206z"/>
		</g>
		<g>
			<path fill="#FFFFFF" d="M107.461,501.888c-0.169,0-0.335-0.066-0.46-0.19l-29.46-29.46c-0.186-0.186-0.241-0.465-0.141-0.708
				s0.338-0.401,0.601-0.401h29.46c0.358,0,0.649,0.291,0.649,0.649v29.461c0,0.263-0.159,0.5-0.401,0.6
				C107.629,501.872,107.545,501.888,107.461,501.888z M79.568,472.427l27.242,27.243v-27.243H79.568z"/>
		</g>
		<g>
			<path fill="#FFFFFF" d="M107.461,501.888h-29.46c-0.358,0-0.649-0.291-0.649-0.649v-29.461c0-0.262,0.158-0.5,0.4-0.6
				c0.244-0.1,0.522-0.045,0.709,0.141l29.459,29.461c0.186,0.186,0.241,0.465,0.142,0.708
				C107.96,501.729,107.724,501.888,107.461,501.888z M78.651,500.589h27.241l-27.241-27.243V500.589z"/>
		</g>
		<g>
			<path fill="#FFFFFF" d="M107.461,442.966c-0.169,0-0.335-0.066-0.46-0.19l-29.46-29.461c-0.186-0.186-0.241-0.465-0.141-0.708
				s0.338-0.401,0.601-0.401h29.46c0.358,0,0.649,0.291,0.649,0.65v29.46c0,0.263-0.159,0.5-0.401,0.6
				C107.629,442.95,107.545,442.966,107.461,442.966z M79.568,413.505l27.242,27.243v-27.243H79.568z"/>
		</g>
		<g>
			<path fill="#FFFFFF" d="M107.461,442.966h-29.46c-0.358,0-0.649-0.291-0.649-0.649v-29.46c0-0.262,0.158-0.5,0.4-0.6
				c0.244-0.1,0.522-0.045,0.708,0.141l29.46,29.461c0.186,0.186,0.241,0.465,0.142,0.708
				C107.96,442.808,107.724,442.966,107.461,442.966z M78.65,441.667h27.242L78.65,414.424V441.667z"/>
		</g>
		<g>
			<path fill="#FFFFFF" d="M78.001,472.427c-0.084,0-0.169-0.016-0.249-0.049c-0.242-0.101-0.4-0.338-0.4-0.601v-29.46
				c0-0.359,0.291-0.649,0.649-0.649h29.46c0.263,0,0.499,0.158,0.601,0.401c0.1,0.243,0.044,0.522-0.142,0.708l-29.46,29.46
				C78.335,472.361,78.169,472.427,78.001,472.427z M78.65,442.966v27.243l27.242-27.243H78.65z"/>
		</g>
		<g>
			<path fill="#FFFFFF" d="M372.607,472.428c-0.083,0-0.168-0.017-0.248-0.05c-0.243-0.1-0.401-0.337-0.401-0.6v-29.46
				c0-0.358,0.291-0.649,0.649-0.649h29.46c0.263,0,0.5,0.158,0.601,0.401c0.101,0.243,0.045,0.522-0.142,0.708l-29.459,29.461
				C372.942,472.362,372.776,472.428,372.607,472.428z M373.258,442.967v27.243l27.242-27.243H373.258z"/>
		</g>
		<g>
			<path fill="#FFFFFF" d="M372.607,472.428c-0.17,0-0.336-0.066-0.46-0.19l-29.46-29.461c-0.187-0.186-0.241-0.464-0.142-0.708
				c0.101-0.243,0.338-0.401,0.601-0.401h29.461c0.359,0,0.648,0.291,0.648,0.649v29.46c0,0.263-0.157,0.5-0.4,0.6
				C372.775,472.412,372.691,472.428,372.607,472.428z M344.715,442.967l27.242,27.243v-27.243H344.715z"/>
		</g>
		<g>
			<path fill="#FFFFFF" d="M372.607,501.888c-0.17,0-0.336-0.066-0.46-0.19l-29.46-29.46c-0.187-0.186-0.241-0.465-0.142-0.708
				c0.101-0.243,0.338-0.401,0.601-0.401h29.46c0.358,0,0.649,0.291,0.649,0.649v29.461c0,0.263-0.158,0.5-0.4,0.6
				C372.775,501.872,372.69,501.888,372.607,501.888z M344.715,472.427l27.242,27.243v-27.243H344.715z"/>
		</g>
		<g>
			<path fill="#FFFFFF" d="M372.607,501.888h-29.461c-0.358,0-0.649-0.291-0.649-0.649v-29.46c0-0.262,0.158-0.5,0.4-0.6
				c0.244-0.101,0.522-0.045,0.708,0.141l29.461,29.46c0.186,0.186,0.241,0.465,0.141,0.708S372.87,501.888,372.607,501.888z
				 M343.797,500.589h27.242l-27.242-27.243V500.589z"/>
		</g>
		<g>
			<path fill="#FFFFFF" d="M372.606,472.427h-29.46c-0.358,0-0.649-0.291-0.649-0.649v-29.46c0-0.262,0.158-0.5,0.4-0.6
				c0.244-0.101,0.522-0.045,0.708,0.141l29.461,29.46c0.186,0.186,0.241,0.466,0.141,0.708
				C373.106,472.269,372.87,472.427,372.606,472.427z M343.797,471.128h27.242l-27.242-27.243V471.128z"/>
		</g>
		<g>
			<path fill="#FFFFFF" d="M372.607,413.506c-0.083,0-0.168-0.017-0.248-0.05c-0.242-0.101-0.4-0.337-0.4-0.6v-29.46
				c0-0.359,0.291-0.649,0.648-0.649h29.46c0.263,0,0.5,0.158,0.601,0.401s0.045,0.522-0.14,0.708l-29.461,29.461
				C372.943,413.44,372.776,413.506,372.607,413.506z M373.258,384.045v27.243l27.242-27.243H373.258z"/>
		</g>
		<g>
			<path fill="#FFFFFF" d="M402.067,413.505h-29.46c-0.262,0-0.499-0.158-0.6-0.401c-0.101-0.242-0.045-0.522,0.142-0.708
				l29.46-29.459c0.186-0.186,0.464-0.241,0.708-0.141c0.242,0.101,0.401,0.337,0.401,0.6l-0.001,29.46
				C402.718,413.215,402.427,413.505,402.067,413.505z M374.177,412.206h27.242v-27.242L374.177,412.206z"/>
		</g>
		<g>
			<path fill="#FFFFFF" d="M343.146,442.966c-0.083,0-0.167-0.016-0.248-0.049c-0.242-0.1-0.4-0.337-0.4-0.6v-29.46
				c0-0.359,0.291-0.65,0.649-0.65h29.461c0.263,0,0.499,0.159,0.6,0.401s0.045,0.522-0.141,0.708l-29.461,29.461
				C343.482,442.9,343.316,442.966,343.146,442.966z M343.797,413.505v27.243l27.242-27.243H343.797z"/>
		</g>
		<g>
			<path fill="#FFFFFF" d="M372.606,413.506h-29.461c-0.262,0-0.499-0.159-0.6-0.401s-0.045-0.522,0.142-0.708l29.46-29.46
				c0.186-0.186,0.465-0.241,0.708-0.141c0.242,0.101,0.4,0.338,0.4,0.6v29.46C373.256,413.215,372.965,413.506,372.606,413.506z
				 M344.715,412.207h27.242v-27.242L344.715,412.207z"/>
		</g>
		<g>
			<path fill="#FFFFFF" d="M372.606,442.967h-29.46c-0.263,0-0.5-0.159-0.601-0.401c-0.1-0.243-0.045-0.522,0.142-0.708l29.46-29.46
				c0.187-0.186,0.465-0.241,0.708-0.141c0.242,0.101,0.4,0.337,0.4,0.6v29.46C373.256,442.676,372.965,442.967,372.606,442.967z
				 M344.715,441.668h27.242v-27.243L344.715,441.668z"/>
		</g>
		<g>
			<path fill="#FFFFFF" d="M402.067,501.888h-29.46c-0.357,0-0.648-0.291-0.648-0.65v-29.46c0-0.262,0.158-0.499,0.4-0.6
				c0.244-0.101,0.521-0.045,0.708,0.141l29.461,29.46c0.185,0.186,0.24,0.466,0.141,0.708
				C402.568,501.729,402.331,501.888,402.067,501.888z M373.258,500.588H400.5l-27.242-27.243V500.588z"/>
		</g>
		<g>
			<path fill="#FFFFFF" d="M402.068,501.887c-0.169,0-0.334-0.066-0.459-0.19l-29.46-29.46c-0.187-0.186-0.241-0.465-0.142-0.708
				c0.102-0.243,0.338-0.401,0.6-0.401h29.461c0.358,0,0.65,0.291,0.65,0.649v29.46c0,0.263-0.159,0.5-0.401,0.601
				C402.236,501.871,402.153,501.887,402.068,501.887z M374.177,472.427l27.242,27.243v-27.243H374.177z"/>
		</g>
		<g>
			<path fill="#FFFFFF" d="M402.067,442.967h-29.46c-0.358,0-0.649-0.291-0.649-0.65v-29.46c0-0.262,0.158-0.499,0.401-0.6
				s0.521-0.045,0.708,0.141l29.459,29.46c0.187,0.186,0.242,0.465,0.142,0.708S402.33,442.967,402.067,442.967z M373.258,441.668
				H400.5l-27.242-27.243V441.668z"/>
		</g>
		<g>
			<path fill="#FFFFFF" d="M343.146,413.506c-0.083,0-0.167-0.017-0.248-0.05c-0.242-0.101-0.4-0.337-0.4-0.6v-29.46
				c0-0.359,0.291-0.65,0.649-0.65h29.461c0.263,0,0.499,0.158,0.6,0.401c0.101,0.243,0.045,0.522-0.141,0.708l-29.461,29.46
				C343.482,413.44,343.316,413.506,343.146,413.506z M343.797,384.046v27.242l27.242-27.242H343.797z"/>
		</g>
		<g>
			<polygon fill="#FFFFFF" points="431.44,294.365 431.44,321.607 458.683,294.365 			"/>
			<polygon fill="#FFFFFF" points="402.898,294.365 430.141,321.607 430.141,294.365 			"/>
			<polygon fill="#FFFFFF" points="401.979,323.825 401.979,351.068 429.222,323.825 			"/>
			<polygon fill="#FFFFFF" points="461.819,293.066 489.063,293.066 489.063,265.823 			"/>
			<polygon fill="#FFFFFF" points="432.359,323.825 459.602,351.068 459.602,323.825 			"/>
			<polygon fill="#FFFFFF" points="432.359,322.525 459.602,322.525 459.602,295.283 			"/>
			<polygon fill="#FFFFFF" points="401.979,322.525 429.222,322.525 401.979,295.283 			"/>
			<polygon fill="#FFFFFF" points="432.357,264.904 459.602,292.146 459.602,264.904 			"/>
			<polygon fill="#FFFFFF" points="431.439,263.604 458.683,263.604 431.439,236.361 			"/>
			<polygon fill="#FFFFFF" points="401.979,235.443 401.979,262.686 429.222,235.443 			"/>
			<polygon fill="#FFFFFF" points="401.979,264.903 401.979,292.145 429.222,264.903 			"/>
			<polygon fill="#FFFFFF" points="402.897,263.604 430.141,263.604 430.141,236.361 			"/>
			<polygon fill="#FFFFFF" points="402.898,293.065 430.141,293.065 430.141,265.822 			"/>
			<polygon fill="#FFFFFF" points="431.44,293.065 458.683,293.065 431.44,265.822 			"/>
			<polygon fill="#FFFFFF" points="490.363,294.365 490.363,321.607 517.605,294.365 			"/>
			<polygon fill="#FFFFFF" points="491.281,323.825 518.523,351.068 518.523,323.825 			"/>
			<polygon fill="#FFFFFF" points="491.281,322.525 518.523,322.525 518.523,295.283 			"/>
			<polygon fill="#FFFFFF" points="491.28,264.904 518.523,292.146 518.523,264.904 			"/>
			<polygon fill="#FFFFFF" points="491.28,263.604 518.523,263.604 518.523,236.361 			"/>
			<polygon fill="#FFFFFF" points="490.363,235.443 490.363,262.686 517.605,235.443 			"/>
			<polygon fill="#FFFFFF" points="490.363,293.065 517.605,293.065 490.363,265.822 			"/>
			<polygon fill="#FFFFFF" points="460.901,322.525 488.145,322.525 460.901,295.283 			"/>
			<polygon fill="#FFFFFF" points="460.901,323.825 460.901,351.068 488.145,323.825 			"/>
			<polygon fill="#FFFFFF" points="461.819,294.366 489.063,321.608 489.063,294.366 			"/>
			<polygon fill="#FFFFFF" points="461.821,263.604 489.063,263.604 489.063,236.361 			"/>
			<polygon fill="#FFFFFF" points="460.902,264.904 460.902,292.146 488.145,264.904 			"/>
			<polygon fill="#FFFFFF" points="136.834,264.905 136.834,292.147 164.076,264.905 			"/>
			<polygon fill="#FFFFFF" points="136.834,322.526 164.076,322.526 136.834,295.283 			"/>
			<polygon fill="#FFFFFF" points="108.291,264.904 135.533,292.147 135.533,264.904 			"/>
			<polygon fill="#FFFFFF" points="108.291,263.604 135.533,263.604 135.533,236.362 			"/>
			<polygon fill="#FFFFFF" points="136.834,263.604 164.076,263.604 136.834,236.361 			"/>
			<polygon fill="#FFFFFF" points="107.373,294.365 107.373,321.607 134.615,294.365 			"/>
			<polygon fill="#FFFFFF" points="107.373,293.065 134.615,293.065 107.373,265.823 			"/>
			<polygon fill="#FFFFFF" points="78.831,293.065 106.073,293.065 106.073,265.823 			"/>
			<polygon fill="#FFFFFF" points="78.831,294.364 106.074,321.607 106.074,294.364 			"/>
			<polygon fill="#FFFFFF" points="108.292,323.825 135.534,351.068 135.534,323.825 			"/>
			<polygon fill="#FFFFFF" points="108.292,322.525 135.534,322.525 135.534,295.283 			"/>
			<polygon fill="#FFFFFF" points="136.834,323.825 136.834,351.068 164.076,323.825 			"/>
			<polygon fill="#FFFFFF" points="107.373,351.986 134.615,351.986 107.373,324.744 			"/>
			<polygon fill="#FFFFFF" points="78.831,351.986 106.073,351.986 106.074,324.744 			"/>
			<polygon fill="#FFFFFF" points="77.912,323.825 77.912,351.068 105.155,323.825 			"/>
			<polygon fill="#FFFFFF" points="77.912,322.526 105.155,322.526 77.912,295.283 			"/>
			<polygon fill="#FFFFFF" points="77.912,264.904 77.912,292.147 105.155,264.904 			"/>
			<polygon fill="#FFFFFF" points="77.912,263.604 105.155,263.604 77.912,236.361 			"/>
			<polygon fill="#FFFFFF" points="107.373,235.443 107.373,262.686 134.615,235.443 			"/>
			<polygon fill="#FFFFFF" points="78.831,235.444 106.073,262.687 106.073,235.444 			"/>
			<polygon fill="#FFFFFF" points="225.216,294.365 225.216,321.607 252.458,294.365 			"/>
			<polygon fill="#FFFFFF" points="196.674,294.365 223.916,321.607 223.916,294.365 			"/>
			<polygon fill="#FFFFFF" points="196.674,323.825 223.916,351.067 223.916,323.825 			"/>
			<polygon fill="#FFFFFF" points="195.755,351.986 222.997,351.986 195.755,324.744 			"/>
			<polygon fill="#FFFFFF" points="195.755,322.526 222.997,322.526 195.755,295.283 			"/>
			<polygon fill="#FFFFFF" points="225.217,235.443 225.217,262.686 252.459,235.443 			"/>
			<polygon fill="#FFFFFF" points="226.135,263.604 253.377,263.604 253.378,236.361 			"/>
			<polygon fill="#FFFFFF" points="195.755,264.903 195.755,292.145 222.997,264.903 			"/>
			<polygon fill="#FFFFFF" points="196.672,263.604 223.916,263.604 223.916,236.361 			"/>
			<polygon fill="#FFFFFF" points="196.674,293.065 223.916,293.065 223.916,265.823 			"/>
			<polygon fill="#FFFFFF" points="225.217,351.985 252.459,351.985 225.217,324.743 			"/>
			<polygon fill="#FFFFFF" points="226.135,323.824 253.378,351.067 253.378,323.824 			"/>
			<polygon fill="#FFFFFF" points="225.216,293.065 252.458,293.065 225.216,265.823 			"/>
			<polygon fill="#FFFFFF" points="195.755,235.443 195.755,262.686 222.997,235.443 			"/>
			<polygon fill="#FFFFFF" points="490.361,147.061 490.361,174.303 517.604,147.061 			"/>
			<polygon fill="#FFFFFF" points="432.359,147.061 459.602,174.303 459.602,147.061 			"/>
			<polygon fill="#FFFFFF" points="432.359,176.521 459.602,203.763 459.602,176.521 			"/>
			<polygon fill="#FFFFFF" points="431.44,204.682 458.683,204.682 431.44,177.44 			"/>
			<polygon fill="#FFFFFF" points="431.44,175.222 458.683,175.222 431.44,147.979 			"/>
			<polygon fill="#FFFFFF" points="490.363,88.139 490.362,115.381 517.605,88.139 			"/>
			<polygon fill="#FFFFFF" points="431.44,117.599 431.44,144.841 458.683,117.599 			"/>
			<polygon fill="#FFFFFF" points="432.358,116.3 459.602,116.3 459.602,89.058 			"/>
			<polygon fill="#FFFFFF" points="432.359,145.761 459.602,145.761 459.602,118.519 			"/>
			<polygon fill="#FFFFFF" points="490.362,204.682 517.605,204.682 490.362,177.439 			"/>
			<polygon fill="#FFFFFF" points="490.361,145.761 517.604,145.761 490.361,118.519 			"/>
			<polygon fill="#FFFFFF" points="431.44,88.139 431.44,115.381 458.683,88.139 			"/>
			<polygon fill="#FFFFFF" points="461.819,175.222 489.063,175.222 489.063,147.979 			"/>
			<polygon fill="#FFFFFF" points="461.819,176.521 489.063,203.763 489.063,176.521 			"/>
			<polygon fill="#FFFFFF" points="460.901,204.682 488.145,204.682 460.901,177.44 			"/>
			<polygon fill="#FFFFFF" points="460.901,147.06 460.901,174.303 488.145,147.06 			"/>
			<polygon fill="#FFFFFF" points="460.901,145.76 488.145,145.76 460.901,118.518 			"/>
			<polygon fill="#FFFFFF" points="461.819,116.3 489.063,116.3 489.063,89.058 			"/>
			<polygon fill="#FFFFFF" points="461.821,117.599 489.063,144.842 489.063,117.599 			"/>
			<polygon fill="#FFFFFF" points="460.901,88.139 460.901,115.381 488.145,88.139 			"/>
			<polygon fill="#FFFFFF" points="108.291,147.06 135.533,174.304 135.533,147.06 			"/>
			<polygon fill="#FFFFFF" points="78.83,147.061 106.072,174.303 106.072,147.061 			"/>
			<polygon fill="#FFFFFF" points="78.83,176.521 106.072,203.764 106.072,176.521 			"/>
			<polygon fill="#FFFFFF" points="107.372,176.521 107.372,203.764 134.615,176.521 			"/>
			<polygon fill="#FFFFFF" points="108.291,204.682 135.534,204.682 135.534,177.439 			"/>
			<polygon fill="#FFFFFF" points="107.373,175.222 134.615,175.222 107.373,147.979 			"/>
			<polygon fill="#FFFFFF" points="77.912,175.222 105.154,175.222 77.912,147.979 			"/>
			<polygon fill="#FFFFFF" points="107.372,145.761 134.615,145.761 107.372,118.518 			"/>
			<polygon fill="#FFFFFF" points="108.291,88.139 135.533,115.382 135.533,88.139 			"/>
			<polygon fill="#FFFFFF" points="107.372,116.299 134.615,116.299 107.372,89.057 			"/>
			<polygon fill="#FFFFFF" points="77.912,117.599 77.912,144.841 105.154,117.599 			"/>
			<polygon fill="#FFFFFF" points="78.83,116.3 106.072,116.3 106.072,89.058 			"/>
			<polygon fill="#FFFFFF" points="78.83,145.761 106.072,145.761 106.072,118.519 			"/>
			<polygon fill="#FFFFFF" points="108.291,117.6 135.533,144.842 135.533,117.6 			"/>
			<polygon fill="#FFFFFF" points="136.834,175.222 164.076,175.222 136.834,147.979 			"/>
			<polygon fill="#FFFFFF" points="136.834,176.521 136.834,203.764 164.076,176.521 			"/>
			<polygon fill="#FFFFFF" points="136.834,116.3 164.076,116.3 136.834,89.058 			"/>
			<polygon fill="#FFFFFF" points="136.834,117.6 136.834,144.842 164.076,117.6 			"/>
			<polygon fill="#FFFFFF" points="225.216,147.061 225.216,174.303 252.458,147.061 			"/>
			<polygon fill="#FFFFFF" points="196.673,147.061 223.916,174.303 223.916,147.061 			"/>
			<polygon fill="#FFFFFF" points="196.673,176.521 223.916,203.764 223.916,176.521 			"/>
			<polygon fill="#FFFFFF" points="225.216,204.682 252.458,204.682 225.216,177.439 			"/>
			<polygon fill="#FFFFFF" points="226.135,176.521 253.377,203.764 253.377,176.521 			"/>
			<polygon fill="#FFFFFF" points="226.135,175.221 253.377,175.221 253.377,147.978 			"/>
			<polygon fill="#FFFFFF" points="195.755,175.222 222.997,175.222 195.755,147.978 			"/>
			<polygon fill="#FFFFFF" points="226.133,117.6 253.376,144.842 253.376,117.6 			"/>
			<polygon fill="#FFFFFF" points="226.133,116.3 253.376,116.3 253.376,89.057 			"/>
			<polygon fill="#FFFFFF" points="225.216,88.139 225.216,115.381 252.458,88.139 			"/>
			<polygon fill="#FFFFFF" points="195.755,117.599 195.755,144.841 222.997,117.599 			"/>
			<polygon fill="#FFFFFF" points="196.673,116.3 223.916,116.3 223.916,89.057 			"/>
			<polygon fill="#FFFFFF" points="196.673,145.761 223.916,145.761 223.916,118.519 			"/>
			<polygon fill="#FFFFFF" points="255.595,147.061 282.838,174.303 282.838,147.061 			"/>
			<polygon fill="#FFFFFF" points="255.595,145.761 282.838,145.761 282.838,118.519 			"/>
			<polygon fill="#FFFFFF" points="225.216,145.761 252.458,145.761 225.216,118.519 			"/>
			<polygon fill="#FFFFFF" points="254.676,175.222 281.919,175.222 254.676,147.978 			"/>
			<polygon fill="#FFFFFF" points="254.676,176.521 254.676,203.764 281.919,176.521 			"/>
			<polygon fill="#FFFFFF" points="254.677,116.3 281.92,116.3 254.677,89.057 			"/>
			<polygon fill="#FFFFFF" points="254.677,117.6 254.677,144.842 281.92,117.6 			"/>
			<polygon fill="#FFFFFF" points="343.058,147.061 343.058,174.304 370.302,147.061 			"/>
			<polygon fill="#FFFFFF" points="314.517,147.061 341.759,174.304 341.759,147.061 			"/>
			<polygon fill="#FFFFFF" points="314.517,204.683 341.76,204.683 341.76,177.44 			"/>
			<polygon fill="#FFFFFF" points="343.058,204.683 370.302,204.683 343.058,177.44 			"/>
			<polygon fill="#FFFFFF" points="313.598,176.521 313.598,203.764 340.841,176.521 			"/>
			<polygon fill="#FFFFFF" points="343.978,176.521 371.221,203.764 371.221,176.521 			"/>
			<polygon fill="#FFFFFF" points="343.978,175.222 371.221,175.222 371.221,147.979 			"/>
			<polygon fill="#FFFFFF" points="313.598,175.222 340.841,175.222 313.598,147.979 			"/>
			<polygon fill="#FFFFFF" points="343.977,117.6 371.219,144.843 371.219,117.6 			"/>
			<polygon fill="#FFFFFF" points="343.977,116.3 371.219,116.3 371.219,89.058 			"/>
			<polygon fill="#FFFFFF" points="343.059,88.139 343.059,115.382 370.302,88.139 			"/>
			<polygon fill="#FFFFFF" points="313.598,117.599 313.598,144.842 340.841,117.599 			"/>
			<polygon fill="#FFFFFF" points="314.516,116.3 341.759,116.3 341.759,89.058 			"/>
			<polygon fill="#FFFFFF" points="314.516,145.761 341.759,145.761 341.759,118.519 			"/>
			<polygon fill="#FFFFFF" points="373.438,147.061 400.681,174.304 400.681,147.061 			"/>
			<polygon fill="#FFFFFF" points="373.438,145.761 400.681,145.761 400.681,118.519 			"/>
			<polygon fill="#FFFFFF" points="343.058,145.761 370.301,145.761 343.058,118.519 			"/>
			<polygon fill="#FFFFFF" points="372.52,175.222 399.763,175.222 372.52,147.979 			"/>
			<polygon fill="#FFFFFF" points="372.52,176.521 372.52,203.764 399.763,176.521 			"/>
			<polygon fill="#FFFFFF" points="372.52,116.301 399.763,116.301 372.52,89.058 			"/>
			<polygon fill="#FFFFFF" points="372.52,117.6 372.52,144.843 399.763,117.6 			"/>
			<polygon fill="#FFFFFF" points="313.598,88.139 313.598,115.382 340.841,88.139 			"/>
			<polygon fill="#FFFFFF" points="285.056,263.604 312.299,263.604 312.299,236.361 			"/>
			<polygon fill="#FFFFFF" points="285.056,293.112 312.299,293.112 312.299,265.869 			"/>
			<polygon fill="#FFFFFF" points="284.137,264.951 284.137,292.194 311.381,264.951 			"/>
			<polygon fill="#FFFFFF" points="284.137,323.872 284.137,351.114 311.381,323.872 			"/>
			<polygon fill="#FFFFFF" points="285.056,294.411 312.298,321.654 312.298,294.411 			"/>
			<polygon fill="#FFFFFF" points="284.137,322.573 311.381,322.573 284.137,295.33 			"/>
			<polygon fill="#FFFFFF" points="313.598,322.573 340.841,322.573 313.598,295.33 			"/>
			<polygon fill="#FFFFFF" points="343.977,293.112 371.221,293.112 371.221,265.869 			"/>
			<polygon fill="#FFFFFF" points="343.058,264.951 343.058,292.194 370.302,264.951 			"/>
			<polygon fill="#FFFFFF" points="343.058,322.573 370.302,322.573 343.058,295.33 			"/>
			<polygon fill="#FFFFFF" points="343.977,294.411 371.22,321.654 371.22,294.411 			"/>
			<polygon fill="#FFFFFF" points="343.977,323.872 371.22,351.114 371.22,323.872 			"/>
			<polygon fill="#FFFFFF" points="343.058,263.604 370.302,263.604 343.058,236.361 			"/>
			<polygon fill="#FFFFFF" points="313.598,263.604 340.841,263.604 313.598,236.361 			"/>
			<polygon fill="#FFFFFF" points="314.517,235.442 341.759,262.685 341.759,235.442 			"/>
			<polygon fill="#FFFFFF" points="328.597,308.492 341.759,321.654 341.759,295.33 			"/>
			<polygon fill="#FFFFFF" points="314.517,264.95 341.759,292.193 341.759,264.95 			"/>
			<polygon fill="#FFFFFF" points="313.598,265.869 313.598,292.193 326.76,279.031 			"/>
		</g>
	</g>
	<g>
		<path fill="#FFFFFF" d="M96.189,583.337c-6.078-1.747-10.501-3.894-13.27-6.441c-2.768-2.546-4.151-5.689-4.151-9.43
			c0-4.231,1.691-7.732,5.075-10.5c3.383-2.769,7.781-4.153,13.194-4.153c3.691,0,6.981,0.714,9.874,2.141
			c2.89,1.427,5.13,3.396,6.717,5.905s2.381,5.254,2.381,8.23h-7.124c0-3.259-1.033-5.821-3.1-7.686
			c-2.067-1.864-4.983-2.796-8.748-2.796c-3.494,0-6.219,0.771-8.176,2.312c-1.955,1.541-2.934,3.678-2.934,6.415
			c0,2.194,0.929,4.05,2.787,5.565c1.857,1.517,5.019,2.903,9.485,4.16c4.466,1.257,7.959,2.643,10.481,4.156
			s4.393,3.279,5.61,5.296c1.219,2.018,1.827,4.393,1.827,7.124c0,4.355-1.697,7.843-5.094,10.464
			c-3.396,2.62-7.936,3.931-13.619,3.931c-3.69,0-7.136-0.708-10.335-2.123c-3.198-1.415-5.665-3.352-7.399-5.813
			c-1.735-2.46-2.603-5.253-2.603-8.378h7.123c0,3.248,1.2,5.813,3.599,7.695c2.399,1.882,5.604,2.824,9.615,2.824
			c3.74,0,6.606-0.763,8.601-2.289c1.992-1.525,2.988-3.604,2.988-6.238c0-2.633-0.922-4.669-2.768-6.108
			C104.383,586.161,101.036,584.74,96.189,583.337z"/>
		<path fill="#FFFFFF" d="M162.33,559.347h-17.273v47.944h-7.05v-47.944h-17.236v-5.795h41.56V559.347z"/>
		<path fill="#FFFFFF" d="M210.606,582.156c0,5.266-0.886,9.861-2.657,13.785c-1.771,3.925-4.281,6.921-7.529,8.988
			c-3.248,2.066-7.037,3.1-11.368,3.1c-4.232,0-7.984-1.039-11.257-3.119c-3.273-2.079-5.813-5.044-7.622-8.895
			c-1.808-3.851-2.737-8.311-2.786-13.38v-3.875c0-5.167,0.897-9.731,2.693-13.693c1.797-3.961,4.338-6.994,7.622-9.098
			c3.285-2.104,7.044-3.156,11.276-3.156c4.305,0,8.102,1.04,11.386,3.119c3.285,2.08,5.813,5.094,7.585,9.043
			s2.657,8.544,2.657,13.785V582.156z M203.557,578.687c0-6.373-1.279-11.263-3.838-14.672c-2.56-3.407-6.14-5.112-10.74-5.112
			c-4.479,0-8.004,1.705-10.574,5.112c-2.572,3.409-3.895,8.139-3.968,14.192v3.949c0,6.176,1.297,11.03,3.894,14.561
			c2.596,3.531,6.169,5.296,10.722,5.296c4.576,0,8.12-1.667,10.63-5.001s3.802-8.114,3.875-14.339V578.687z"/>
		<path fill="#FFFFFF" d="M260.766,590.239c-0.664,5.684-2.762,10.07-6.293,13.158c-3.53,3.088-8.225,4.632-14.08,4.632
			c-6.349,0-11.437-2.276-15.262-6.828c-3.827-4.552-5.74-10.642-5.74-18.27v-5.167c0-4.995,0.893-9.387,2.677-13.177
			c1.783-3.789,4.312-6.699,7.585-8.729c3.271-2.03,7.062-3.045,11.367-3.045c5.708,0,10.285,1.594,13.73,4.78
			c3.444,3.187,5.449,7.598,6.016,13.232h-7.123c-0.615-4.294-1.95-7.404-4.004-9.329c-2.056-1.925-4.928-2.888-8.619-2.888
			c-4.527,0-8.077,1.675-10.647,5.024c-2.572,3.35-3.857,8.115-3.857,14.295v5.209c0,5.837,1.218,10.479,3.653,13.927
			c2.437,3.447,5.844,5.171,10.225,5.171c3.937,0,6.957-0.892,9.061-2.676c2.104-1.784,3.5-4.89,4.189-9.319H260.766z"/>
		<path fill="#FFFFFF" d="M284.092,582.304l-6.569,6.829v18.159h-7.087v-53.739h7.087v26.575l23.88-26.575h8.563l-21.148,23.732
			l22.811,30.007h-8.49L284.092,582.304z"/>
		<path fill="#FFFFFF" d="M359.127,607.291h-7.123v-24.84h-27.091v24.84h-7.087v-53.739h7.087v23.105h27.091v-23.105h7.123V607.291z
			"/>
		<path fill="#FFFFFF" d="M413.052,582.156c0,5.266-0.886,9.861-2.657,13.785c-1.771,3.925-4.281,6.921-7.529,8.988
			c-3.248,2.066-7.037,3.1-11.368,3.1c-4.232,0-7.984-1.039-11.257-3.119c-3.273-2.079-5.813-5.044-7.622-8.895
			c-1.808-3.851-2.737-8.311-2.786-13.38v-3.875c0-5.167,0.897-9.731,2.693-13.693c1.797-3.961,4.338-6.994,7.622-9.098
			c3.285-2.104,7.044-3.156,11.276-3.156c4.305,0,8.102,1.04,11.386,3.119c3.285,2.08,5.813,5.094,7.585,9.043
			s2.657,8.544,2.657,13.785V582.156z M406.002,578.687c0-6.373-1.279-11.263-3.838-14.672c-2.56-3.407-6.14-5.112-10.74-5.112
			c-4.479,0-8.004,1.705-10.574,5.112c-2.572,3.409-3.895,8.139-3.968,14.192v3.949c0,6.176,1.297,11.03,3.894,14.561
			c2.596,3.531,6.169,5.296,10.722,5.296c4.576,0,8.12-1.667,10.63-5.001s3.802-8.114,3.875-14.339V578.687z"/>
		<path fill="#FFFFFF" d="M430.805,601.496h25.467v5.795h-32.591v-53.739h7.124V601.496z"/>
		<path fill="#FFFFFF" d="M473.508,553.552l17.569,43.848l17.568-43.848h9.19v53.739h-7.087v-20.927l0.665-22.588l-17.643,43.516
			h-5.426l-17.605-43.405l0.701,22.478v20.927h-7.087v-53.739H473.508z"/>
	</g>
</g>
</svg>
