<?xml version="1.0" encoding="utf-8"?>
<!-- Generator: Adobe Illustrator 16.0.3, SVG Export Plug-In . SVG Version: 6.00 Build 0)  -->
<!DOCTYPE svg PUBLIC "-//W3C//DTD SVG 1.1//EN" "http://www.w3.org/Graphics/SVG/1.1/DTD/svg11.dtd">
<svg version="1.1" id="Warstwa_1" xmlns="http://www.w3.org/2000/svg" xmlns:xlink="http://www.w3.org/1999/xlink" x="0px" y="0px"
	 width="441.453px" height="519.891px" viewBox="0 0 441.453 519.891" enable-background="new 0 0 441.453 519.891"
	 xml:space="preserve">
<g>
	<g>
		<g>
			<path fill="#FFFFFF" d="M89.313,413.749c-0.083,0-0.168-0.016-0.248-0.049c-0.243-0.101-0.401-0.338-0.401-0.601v-29.46
				c0-0.358,0.291-0.649,0.649-0.649h29.461c0.263,0,0.5,0.158,0.6,0.401c0.101,0.243,0.046,0.522-0.141,0.708l-29.46,29.46
				C89.648,413.683,89.482,413.749,89.313,413.749z M89.963,384.288v27.243l27.242-27.243H89.963z"/>
		</g>
		<g>
			<path fill="#FFFFFF" d="M118.773,413.748H89.313c-0.262,0-0.5-0.158-0.6-0.401c-0.101-0.242-0.045-0.522,0.141-0.708
				l29.461-29.46c0.186-0.185,0.464-0.241,0.708-0.14c0.242,0.1,0.4,0.337,0.4,0.6v29.46
				C119.423,413.458,119.132,413.748,118.773,413.748z M90.881,412.449h27.242v-27.243L90.881,412.449z"/>
		</g>
		<g>
			<path fill="#FFFFFF" d="M118.773,384.288H89.313c-0.262,0-0.5-0.158-0.6-0.401c-0.101-0.243-0.045-0.522,0.141-0.708
				l29.461-29.46c0.186-0.186,0.464-0.241,0.708-0.141c0.242,0.1,0.4,0.337,0.4,0.6v29.46
				C119.423,383.998,119.132,384.288,118.773,384.288z M90.881,382.989h27.242v-27.243L90.881,382.989z"/>
		</g>
		<g>
			<path fill="#FFFFFF" d="M118.772,325.366c-0.169,0-0.335-0.066-0.458-0.19l-29.461-29.459c-0.187-0.186-0.242-0.465-0.142-0.708
				c0.101-0.242,0.338-0.4,0.601-0.4h29.46c0.359,0,0.649,0.291,0.649,0.649v29.46c0,0.263-0.157,0.5-0.4,0.6
				C118.941,325.35,118.856,325.366,118.772,325.366z M90.881,295.907l27.242,27.242v-27.242H90.881z"/>
		</g>
		<g>
			<path fill="#FFFFFF" d="M118.772,325.366h-29.46c-0.358,0-0.649-0.291-0.649-0.649v-29.46c0-0.263,0.158-0.5,0.401-0.6
				c0.243-0.101,0.521-0.045,0.708,0.14l29.46,29.46c0.185,0.186,0.241,0.465,0.141,0.708S119.035,325.366,118.772,325.366z
				 M89.963,324.067h27.242l-27.242-27.243V324.067z"/>
		</g>
		<g>
			<path fill="#FFFFFF" d="M118.772,354.828h-29.46c-0.358,0-0.649-0.291-0.649-0.649v-29.46c0-0.262,0.158-0.5,0.401-0.6
				c0.243-0.101,0.521-0.045,0.708,0.14l29.46,29.46c0.185,0.186,0.241,0.466,0.141,0.708
				C119.272,354.669,119.035,354.828,118.772,354.828z M89.963,353.528h27.242l-27.242-27.243V353.528z"/>
		</g>
		<g>
			<path fill="#FFFFFF" d="M89.313,384.288c-0.083,0-0.168-0.016-0.248-0.049c-0.243-0.101-0.401-0.338-0.401-0.601v-29.46
				c0-0.359,0.291-0.649,0.649-0.649h29.46c0.263,0,0.5,0.158,0.601,0.401c0.101,0.243,0.044,0.522-0.141,0.708l-29.46,29.46
				C89.648,384.222,89.482,384.288,89.313,384.288z M89.963,354.827v27.243l27.242-27.243H89.963z"/>
		</g>
		<g>
			<path fill="#FFFFFF" d="M118.772,354.827c-0.169,0-0.335-0.066-0.459-0.19l-29.46-29.461c-0.187-0.186-0.241-0.465-0.142-0.708
				c0.101-0.243,0.338-0.401,0.601-0.401h29.46c0.358,0,0.649,0.291,0.649,0.65v29.46c0,0.263-0.158,0.5-0.401,0.6
				C118.94,354.811,118.856,354.827,118.772,354.827z M90.881,325.367l27.242,27.243v-27.243H90.881z"/>
		</g>
		<g>
			<path fill="#FFFFFF" d="M177.694,413.75c-0.083,0-0.168-0.017-0.249-0.049c-0.242-0.101-0.4-0.337-0.4-0.6v-29.461
				c0-0.359,0.291-0.649,0.65-0.649h29.46c0.263,0,0.5,0.158,0.601,0.401c0.1,0.243,0.045,0.522-0.142,0.708l-29.46,29.46
				C178.03,413.683,177.864,413.75,177.694,413.75z M178.344,384.289v27.243l27.243-27.243H178.344z"/>
		</g>
		<g>
			<path fill="#FFFFFF" d="M207.155,413.749h-29.46c-0.264,0-0.5-0.159-0.601-0.401c-0.101-0.243-0.045-0.522,0.141-0.708
				l29.46-29.46c0.187-0.186,0.465-0.241,0.709-0.141c0.242,0.101,0.4,0.337,0.4,0.6v29.46
				C207.805,413.458,207.515,413.749,207.155,413.749z M179.263,412.45h27.243v-27.243L179.263,412.45z"/>
		</g>
		<g>
			<path fill="#FFFFFF" d="M207.155,384.289h-29.46c-0.264,0-0.5-0.158-0.601-0.4c-0.101-0.243-0.045-0.522,0.141-0.708
				l29.46-29.459c0.187-0.186,0.465-0.241,0.709-0.141c0.242,0.101,0.4,0.337,0.4,0.6v29.46
				C207.805,383.998,207.515,384.289,207.155,384.289z M179.263,382.99h27.243v-27.243L179.263,382.99z"/>
		</g>
		<g>
			<path fill="#FFFFFF" d="M207.155,325.367c-0.17,0-0.335-0.066-0.46-0.19l-29.46-29.46c-0.187-0.186-0.242-0.465-0.142-0.708
				c0.102-0.243,0.338-0.401,0.6-0.401h29.461c0.359,0,0.65,0.291,0.65,0.649v29.46c0,0.263-0.158,0.5-0.4,0.601
				C207.323,325.351,207.238,325.367,207.155,325.367z M179.263,295.907l27.243,27.243v-27.243H179.263z"/>
		</g>
		<g>
			<path fill="#FFFFFF" d="M207.154,325.367h-29.459c-0.359,0-0.65-0.291-0.65-0.649v-29.46c0-0.262,0.158-0.499,0.4-0.6
				c0.244-0.101,0.523-0.045,0.709,0.141l29.46,29.459c0.186,0.186,0.241,0.466,0.14,0.708
				C207.655,325.208,207.417,325.367,207.154,325.367z M178.344,324.067h27.243l-27.243-27.242V324.067z"/>
		</g>
		<g>
			<path fill="#FFFFFF" d="M236.615,325.367c-0.168,0-0.334-0.066-0.458-0.19l-29.462-29.46c-0.185-0.186-0.24-0.465-0.141-0.708
				c0.101-0.243,0.338-0.401,0.601-0.401h29.46c0.359,0,0.65,0.291,0.65,0.649v29.46c0,0.263-0.158,0.5-0.401,0.601
				C236.783,325.351,236.699,325.367,236.615,325.367z M208.724,295.907l27.243,27.243v-27.243H208.724z"/>
		</g>
		<g>
			<path fill="#FFFFFF" d="M236.615,325.367h-29.459c-0.358,0-0.649-0.291-0.649-0.649v-29.46c0-0.262,0.158-0.499,0.401-0.6
				s0.521-0.045,0.707,0.141l29.46,29.459c0.186,0.186,0.241,0.466,0.141,0.708C237.115,325.208,236.878,325.367,236.615,325.367z
				 M207.806,324.067h27.242l-27.242-27.242V324.067z"/>
		</g>
		<g>
			<path fill="#FFFFFF" d="M177.693,325.367c-0.168,0-0.334-0.066-0.458-0.19l-29.461-29.46c-0.186-0.186-0.241-0.465-0.142-0.708
				c0.102-0.243,0.338-0.401,0.602-0.401h29.459c0.359,0,0.65,0.291,0.65,0.649v29.46c0,0.263-0.158,0.5-0.401,0.601
				C177.862,325.351,177.777,325.367,177.693,325.367z M149.803,295.907l27.242,27.243v-27.243H149.803z"/>
		</g>
		<g>
			<path fill="#FFFFFF" d="M177.693,325.367h-29.459c-0.359,0-0.649-0.291-0.649-0.649v-29.46c0-0.262,0.158-0.499,0.401-0.6
				c0.242-0.101,0.521-0.045,0.707,0.141l29.46,29.459c0.186,0.186,0.241,0.466,0.141,0.708
				C178.193,325.208,177.956,325.367,177.693,325.367z M148.884,324.067h27.242l-27.242-27.242V324.067z"/>
		</g>
		<g>
			<path fill="#FFFFFF" d="M207.155,354.828c-0.17,0-0.335-0.066-0.46-0.19l-29.46-29.46c-0.187-0.186-0.242-0.465-0.142-0.708
				c0.102-0.243,0.338-0.401,0.6-0.401h29.461c0.359,0,0.65,0.291,0.65,0.649v29.46c0,0.263-0.158,0.5-0.4,0.601
				C207.323,354.812,207.238,354.828,207.155,354.828z M179.263,325.368l27.243,27.243v-27.243H179.263z"/>
		</g>
		<g>
			<path fill="#FFFFFF" d="M207.154,354.828h-29.459c-0.359,0-0.65-0.291-0.65-0.649v-29.46c0-0.262,0.158-0.5,0.4-0.6
				c0.244-0.101,0.523-0.045,0.709,0.14l29.46,29.46c0.186,0.186,0.241,0.466,0.14,0.708
				C207.655,354.669,207.417,354.828,207.154,354.828z M178.344,353.528h27.243l-27.243-27.243V353.528z"/>
		</g>
		<g>
			<path fill="#FFFFFF" d="M177.694,384.288c-0.083,0-0.168-0.016-0.249-0.049c-0.242-0.1-0.4-0.337-0.4-0.6v-29.46
				c0-0.359,0.291-0.65,0.65-0.65h29.459c0.263,0,0.501,0.159,0.6,0.401c0.102,0.243,0.046,0.522-0.14,0.708l-29.46,29.461
				C178.03,384.222,177.864,384.288,177.694,384.288z M178.344,354.828v27.243l27.243-27.243H178.344z"/>
		</g>
		<g>
			<path fill="#FFFFFF" d="M30.391,413.749c-0.083,0-0.167-0.016-0.248-0.049c-0.242-0.101-0.4-0.338-0.4-0.601v-29.46
				c0-0.358,0.29-0.649,0.649-0.649h29.46c0.263,0,0.5,0.158,0.6,0.401c0.102,0.243,0.045,0.522-0.141,0.708l-29.46,29.46
				C30.727,413.683,30.561,413.749,30.391,413.749z M31.041,384.288v27.243l27.242-27.243H31.041z"/>
		</g>
		<g>
			<path fill="#FFFFFF" d="M59.852,413.748h-29.46c-0.264,0-0.5-0.158-0.601-0.401c-0.1-0.242-0.045-0.522,0.142-0.708l29.46-29.46
				c0.186-0.185,0.465-0.241,0.708-0.14c0.243,0.1,0.4,0.337,0.4,0.6v29.46C60.501,413.458,60.211,413.748,59.852,413.748z
				 M31.959,412.449h27.243v-27.243L31.959,412.449z"/>
		</g>
		<g>
			<path fill="#FFFFFF" d="M30.391,384.288H0.931c-0.263,0-0.499-0.158-0.601-0.401c-0.1-0.243-0.045-0.522,0.142-0.708l29.46-29.46
				c0.186-0.186,0.465-0.241,0.708-0.141c0.242,0.1,0.401,0.337,0.401,0.6v29.46C31.041,383.998,30.75,384.288,30.391,384.288z
				 M2.498,382.989h27.244v-27.243L2.498,382.989z"/>
		</g>
		<g>
			<path fill="#FFFFFF" d="M30.391,325.366c-0.169,0-0.335-0.066-0.46-0.19l-29.46-29.459c-0.186-0.186-0.241-0.465-0.141-0.708
				c0.101-0.242,0.338-0.4,0.601-0.4h29.46c0.358,0,0.649,0.291,0.649,0.649v29.46c0,0.263-0.159,0.5-0.401,0.6
				C30.559,325.35,30.475,325.366,30.391,325.366z M2.498,295.907l27.242,27.242v-27.242H2.498z"/>
		</g>
		<g>
			<path fill="#FFFFFF" d="M30.391,325.366H0.931c-0.358,0-0.649-0.291-0.649-0.649v-29.46c0-0.263,0.158-0.5,0.4-0.6
				c0.244-0.101,0.522-0.045,0.709,0.14l29.459,29.46c0.186,0.186,0.241,0.465,0.142,0.708
				C30.89,325.208,30.653,325.366,30.391,325.366z M1.581,324.067h27.241L1.581,296.825V324.067z"/>
		</g>
		<g>
			<path fill="#FFFFFF" d="M30.391,413.75c-0.169,0-0.335-0.066-0.46-0.19l-29.46-29.46c-0.186-0.186-0.241-0.465-0.141-0.708
				s0.338-0.401,0.601-0.401h29.46c0.358,0,0.649,0.291,0.649,0.649V413.1c0,0.263-0.159,0.5-0.401,0.6
				C30.559,413.733,30.475,413.75,30.391,413.75z M2.498,384.289l27.242,27.243v-27.243H2.498z"/>
		</g>
		<g>
			<path fill="#FFFFFF" d="M30.391,413.75H0.931c-0.358,0-0.649-0.291-0.649-0.649v-29.461c0-0.262,0.158-0.5,0.4-0.6
				c0.244-0.1,0.522-0.045,0.709,0.141l29.459,29.461c0.186,0.186,0.241,0.465,0.142,0.708
				C30.89,413.591,30.653,413.75,30.391,413.75z M1.581,412.45h27.241L1.581,385.208V412.45z"/>
		</g>
		<g>
			<path fill="#FFFFFF" d="M30.391,354.827c-0.169,0-0.335-0.066-0.46-0.19l-29.46-29.461c-0.186-0.186-0.241-0.465-0.141-0.708
				s0.338-0.401,0.601-0.401h29.46c0.358,0,0.649,0.291,0.649,0.65v29.46c0,0.263-0.159,0.5-0.401,0.6
				C30.559,354.811,30.475,354.827,30.391,354.827z M2.498,325.367L29.74,352.61v-27.243H2.498z"/>
		</g>
		<g>
			<path fill="#FFFFFF" d="M30.391,354.827H0.931c-0.358,0-0.649-0.291-0.649-0.649v-29.46c0-0.262,0.158-0.5,0.4-0.6
				c0.244-0.1,0.522-0.045,0.708,0.141l29.46,29.461c0.186,0.186,0.241,0.465,0.142,0.708
				C30.89,354.669,30.653,354.827,30.391,354.827z M1.58,353.528h27.242L1.58,326.286V353.528z"/>
		</g>
		<g>
			<path fill="#FFFFFF" d="M0.931,384.288c-0.084,0-0.169-0.016-0.249-0.049c-0.242-0.101-0.4-0.338-0.4-0.601v-29.46
				c0-0.359,0.291-0.649,0.649-0.649h29.46c0.263,0,0.499,0.158,0.601,0.401c0.1,0.243,0.044,0.522-0.142,0.708l-29.46,29.46
				C1.265,384.222,1.099,384.288,0.931,384.288z M1.58,354.827v27.243l27.242-27.243H1.58z"/>
		</g>
		<g>
			<path fill="#FFFFFF" d="M295.537,384.29c-0.083,0-0.168-0.017-0.248-0.05c-0.243-0.1-0.401-0.337-0.401-0.6v-29.46
				c0-0.358,0.291-0.649,0.649-0.649h29.46c0.263,0,0.5,0.158,0.601,0.401c0.101,0.243,0.045,0.522-0.142,0.708l-29.459,29.461
				C295.872,384.223,295.706,384.29,295.537,384.29z M296.188,354.829v27.243l27.242-27.243H296.188z"/>
		</g>
		<g>
			<path fill="#FFFFFF" d="M295.537,384.29c-0.17,0-0.336-0.066-0.46-0.19l-29.46-29.461c-0.187-0.186-0.241-0.464-0.142-0.708
				c0.101-0.243,0.338-0.401,0.601-0.401h29.461c0.359,0,0.648,0.291,0.648,0.649v29.46c0,0.263-0.157,0.5-0.4,0.6
				C295.705,384.273,295.621,384.29,295.537,384.29z M267.645,354.829l27.242,27.243v-27.243H267.645z"/>
		</g>
		<g>
			<path fill="#FFFFFF" d="M295.537,413.75c-0.17,0-0.336-0.066-0.46-0.19l-29.46-29.46c-0.187-0.186-0.241-0.465-0.142-0.708
				c0.101-0.243,0.338-0.401,0.601-0.401h29.46c0.358,0,0.649,0.291,0.649,0.649V413.1c0,0.263-0.158,0.5-0.4,0.6
				C295.705,413.733,295.62,413.75,295.537,413.75z M267.645,384.289l27.242,27.243v-27.243H267.645z"/>
		</g>
		<g>
			<path fill="#FFFFFF" d="M295.537,413.75h-29.461c-0.358,0-0.649-0.291-0.649-0.649v-29.46c0-0.262,0.158-0.5,0.4-0.6
				c0.244-0.101,0.522-0.045,0.708,0.141l29.461,29.46c0.186,0.186,0.241,0.465,0.141,0.708S295.8,413.75,295.537,413.75z
				 M266.727,412.45h27.242l-27.242-27.243V412.45z"/>
		</g>
		<g>
			<path fill="#FFFFFF" d="M295.536,384.289h-29.46c-0.358,0-0.649-0.291-0.649-0.649v-29.46c0-0.262,0.158-0.5,0.4-0.6
				c0.244-0.101,0.522-0.045,0.708,0.141l29.461,29.46c0.186,0.186,0.241,0.466,0.141,0.708
				C296.036,384.13,295.8,384.289,295.536,384.289z M266.727,382.99h27.242l-27.242-27.243V382.99z"/>
		</g>
		<g>
			<path fill="#FFFFFF" d="M295.537,325.368c-0.083,0-0.168-0.017-0.248-0.05c-0.242-0.101-0.4-0.337-0.4-0.6v-29.46
				c0-0.359,0.291-0.649,0.648-0.649h29.46c0.263,0,0.5,0.158,0.601,0.401s0.045,0.522-0.14,0.708l-29.461,29.461
				C295.873,325.301,295.706,325.368,295.537,325.368z M296.188,295.907v27.243l27.242-27.243H296.188z"/>
		</g>
		<g>
			<path fill="#FFFFFF" d="M324.997,325.367h-29.46c-0.262,0-0.499-0.158-0.6-0.401c-0.101-0.242-0.045-0.522,0.142-0.708
				l29.46-29.459c0.186-0.186,0.464-0.241,0.708-0.141c0.242,0.101,0.401,0.337,0.401,0.6l-0.001,29.46
				C325.647,325.076,325.356,325.367,324.997,325.367z M297.106,324.067h27.242v-27.242L297.106,324.067z"/>
		</g>
		<g>
			<path fill="#FFFFFF" d="M266.075,354.827c-0.083,0-0.167-0.016-0.248-0.049c-0.242-0.1-0.4-0.337-0.4-0.6v-29.46
				c0-0.359,0.291-0.65,0.649-0.65h29.461c0.263,0,0.499,0.159,0.6,0.401s0.045,0.522-0.141,0.708l-29.461,29.461
				C266.412,354.761,266.246,354.827,266.075,354.827z M266.727,325.367v27.243l27.242-27.243H266.727z"/>
		</g>
		<g>
			<path fill="#FFFFFF" d="M295.536,325.368h-29.461c-0.262,0-0.499-0.159-0.6-0.401s-0.045-0.522,0.142-0.708l29.46-29.46
				c0.186-0.186,0.465-0.241,0.708-0.141c0.242,0.101,0.4,0.338,0.4,0.6v29.46C296.186,325.077,295.895,325.368,295.536,325.368z
				 M267.645,324.068h27.242v-27.242L267.645,324.068z"/>
		</g>
		<g>
			<path fill="#FFFFFF" d="M295.536,354.829h-29.46c-0.263,0-0.5-0.159-0.601-0.401c-0.1-0.243-0.045-0.522,0.142-0.708l29.46-29.46
				c0.187-0.186,0.465-0.241,0.708-0.141c0.242,0.101,0.4,0.337,0.4,0.6v29.46C296.186,354.538,295.895,354.829,295.536,354.829z
				 M267.645,353.529h27.242v-27.243L267.645,353.529z"/>
		</g>
		<g>
			<path fill="#FFFFFF" d="M324.997,413.749h-29.46c-0.357,0-0.648-0.291-0.648-0.65v-29.46c0-0.262,0.158-0.499,0.4-0.6
				c0.244-0.101,0.521-0.045,0.708,0.141l29.461,29.46c0.185,0.186,0.24,0.466,0.141,0.708
				C325.498,413.59,325.261,413.749,324.997,413.749z M296.188,412.45h27.242l-27.242-27.243V412.45z"/>
		</g>
		<g>
			<path fill="#FFFFFF" d="M324.998,413.748c-0.169,0-0.334-0.066-0.459-0.19l-29.46-29.46c-0.187-0.186-0.241-0.465-0.142-0.708
				c0.102-0.243,0.338-0.401,0.6-0.401h29.461c0.358,0,0.65,0.291,0.65,0.649v29.46c0,0.263-0.159,0.5-0.401,0.601
				C325.166,413.732,325.083,413.748,324.998,413.748z M297.106,384.288l27.242,27.243v-27.243H297.106z"/>
		</g>
		<g>
			<path fill="#FFFFFF" d="M324.997,354.829h-29.46c-0.358,0-0.649-0.291-0.649-0.65v-29.46c0-0.262,0.158-0.499,0.401-0.6
				s0.521-0.045,0.708,0.141l29.459,29.46c0.187,0.186,0.242,0.465,0.142,0.708S325.26,354.829,324.997,354.829z M296.188,353.529
				h27.242l-27.242-27.243V353.529z"/>
		</g>
		<g>
			<path fill="#FFFFFF" d="M266.075,325.368c-0.083,0-0.167-0.017-0.248-0.05c-0.242-0.101-0.4-0.337-0.4-0.6v-29.46
				c0-0.359,0.291-0.65,0.649-0.65h29.461c0.263,0,0.499,0.158,0.6,0.401c0.101,0.243,0.045,0.522-0.141,0.708l-29.461,29.46
				C266.412,325.301,266.246,325.368,266.075,325.368z M266.727,295.907v27.242l27.242-27.242H266.727z"/>
		</g>
		<g>
			<polygon fill="#FFFFFF" points="354.37,206.226 354.37,233.469 381.612,206.226 			"/>
			<polygon fill="#FFFFFF" points="325.828,206.226 353.07,233.469 353.07,206.226 			"/>
			<polygon fill="#FFFFFF" points="324.909,235.686 324.909,262.929 352.151,235.686 			"/>
			<polygon fill="#FFFFFF" points="384.749,204.927 411.992,204.927 411.992,177.685 			"/>
			<polygon fill="#FFFFFF" points="355.289,235.686 382.531,262.929 382.531,235.686 			"/>
			<polygon fill="#FFFFFF" points="355.289,234.387 382.531,234.387 382.531,207.144 			"/>
			<polygon fill="#FFFFFF" points="324.909,234.387 352.151,234.387 324.909,207.144 			"/>
			<polygon fill="#FFFFFF" points="355.287,176.765 382.531,204.008 382.531,176.765 			"/>
			<polygon fill="#FFFFFF" points="354.369,175.465 381.612,175.465 354.369,148.222 			"/>
			<polygon fill="#FFFFFF" points="324.909,147.304 324.909,174.547 352.151,147.304 			"/>
			<polygon fill="#FFFFFF" points="324.909,176.764 324.909,204.006 352.151,176.764 			"/>
			<polygon fill="#FFFFFF" points="325.827,175.465 353.07,175.465 353.07,148.222 			"/>
			<polygon fill="#FFFFFF" points="325.828,204.926 353.07,204.926 353.07,177.683 			"/>
			<polygon fill="#FFFFFF" points="354.37,204.926 381.612,204.926 354.37,177.683 			"/>
			<polygon fill="#FFFFFF" points="413.293,206.226 413.293,233.469 440.535,206.226 			"/>
			<polygon fill="#FFFFFF" points="414.211,235.686 441.453,262.929 441.453,235.686 			"/>
			<polygon fill="#FFFFFF" points="414.211,234.387 441.453,234.387 441.453,207.144 			"/>
			<polygon fill="#FFFFFF" points="414.21,176.765 441.453,204.008 441.453,176.765 			"/>
			<polygon fill="#FFFFFF" points="414.21,175.465 441.453,175.465 441.453,148.222 			"/>
			<polygon fill="#FFFFFF" points="413.293,147.304 413.293,174.547 440.535,147.304 			"/>
			<polygon fill="#FFFFFF" points="413.293,204.926 440.535,204.926 413.293,177.683 			"/>
			<polygon fill="#FFFFFF" points="383.831,234.387 411.074,234.387 383.831,207.144 			"/>
			<polygon fill="#FFFFFF" points="383.831,235.686 383.831,262.929 411.074,235.686 			"/>
			<polygon fill="#FFFFFF" points="384.749,206.227 411.992,233.47 411.992,206.227 			"/>
			<polygon fill="#FFFFFF" points="384.751,175.465 411.992,175.465 411.992,148.222 			"/>
			<polygon fill="#FFFFFF" points="383.832,176.765 383.832,204.008 411.074,176.765 			"/>
			<polygon fill="#FFFFFF" points="59.764,176.766 59.764,204.009 87.006,176.766 			"/>
			<polygon fill="#FFFFFF" points="59.764,234.387 87.006,234.387 59.764,207.145 			"/>
			<polygon fill="#FFFFFF" points="31.221,176.765 58.463,204.008 58.463,176.765 			"/>
			<polygon fill="#FFFFFF" points="31.221,175.466 58.463,175.466 58.463,148.224 			"/>
			<polygon fill="#FFFFFF" points="59.764,175.465 87.006,175.465 59.764,148.222 			"/>
			<polygon fill="#FFFFFF" points="30.303,206.226 30.303,233.469 57.545,206.226 			"/>
			<polygon fill="#FFFFFF" points="30.303,204.927 57.545,204.927 30.303,177.684 			"/>
			<polygon fill="#FFFFFF" points="1.761,204.927 29.003,204.927 29.003,177.684 			"/>
			<polygon fill="#FFFFFF" points="1.761,206.225 29.004,233.468 29.004,206.225 			"/>
			<polygon fill="#FFFFFF" points="31.222,235.686 58.464,262.929 58.464,235.686 			"/>
			<polygon fill="#FFFFFF" points="31.222,234.387 58.464,234.387 58.464,207.145 			"/>
			<polygon fill="#FFFFFF" points="59.764,235.686 59.764,262.929 87.006,235.686 			"/>
			<polygon fill="#FFFFFF" points="30.303,263.848 57.545,263.848 30.303,236.605 			"/>
			<polygon fill="#FFFFFF" points="1.761,263.848 29.003,263.848 29.004,236.605 			"/>
			<polygon fill="#FFFFFF" points="0.842,235.686 0.842,262.929 28.085,235.686 			"/>
			<polygon fill="#FFFFFF" points="0.842,234.387 28.085,234.387 0.842,207.145 			"/>
			<polygon fill="#FFFFFF" points="0.842,176.765 0.842,204.008 28.085,176.765 			"/>
			<polygon fill="#FFFFFF" points="0.842,175.465 28.085,175.465 0.842,148.223 			"/>
			<polygon fill="#FFFFFF" points="30.303,147.305 30.303,174.547 57.545,147.305 			"/>
			<polygon fill="#FFFFFF" points="1.761,147.305 29.003,174.548 29.003,147.305 			"/>
			<polygon fill="#FFFFFF" points="148.146,206.226 148.146,233.469 175.388,206.226 			"/>
			<polygon fill="#FFFFFF" points="119.604,206.226 146.846,233.469 146.846,206.226 			"/>
			<polygon fill="#FFFFFF" points="119.604,235.686 146.846,262.928 146.846,235.686 			"/>
			<polygon fill="#FFFFFF" points="118.685,263.848 145.927,263.848 118.685,236.605 			"/>
			<polygon fill="#FFFFFF" points="118.685,234.387 145.927,234.387 118.685,207.144 			"/>
			<polygon fill="#FFFFFF" points="148.146,147.304 148.146,174.547 175.389,147.304 			"/>
			<polygon fill="#FFFFFF" points="149.064,175.465 176.307,175.465 176.308,148.222 			"/>
			<polygon fill="#FFFFFF" points="118.685,176.764 118.685,204.006 145.927,176.764 			"/>
			<polygon fill="#FFFFFF" points="119.602,175.465 146.846,175.465 146.846,148.223 			"/>
			<polygon fill="#FFFFFF" points="119.604,204.926 146.846,204.926 146.846,177.684 			"/>
			<polygon fill="#FFFFFF" points="148.146,263.847 175.389,263.847 148.146,236.604 			"/>
			<polygon fill="#FFFFFF" points="149.064,235.685 176.308,262.928 176.308,235.685 			"/>
			<polygon fill="#FFFFFF" points="148.146,204.926 175.388,204.926 148.146,177.684 			"/>
			<polygon fill="#FFFFFF" points="118.685,147.304 118.685,174.547 145.927,147.304 			"/>
			<polygon fill="#FFFFFF" points="413.291,58.922 413.291,86.165 440.534,58.922 			"/>
			<polygon fill="#FFFFFF" points="355.289,58.922 382.531,86.165 382.531,58.922 			"/>
			<polygon fill="#FFFFFF" points="355.289,88.382 382.531,115.625 382.531,88.382 			"/>
			<polygon fill="#FFFFFF" points="354.37,116.543 381.612,116.543 354.37,89.301 			"/>
			<polygon fill="#FFFFFF" points="354.37,87.083 381.612,87.083 354.37,59.84 			"/>
			<polygon fill="#FFFFFF" points="413.293,0 413.292,27.243 440.535,0 			"/>
			<polygon fill="#FFFFFF" points="354.37,29.46 354.37,56.703 381.612,29.46 			"/>
			<polygon fill="#FFFFFF" points="355.288,28.162 382.531,28.162 382.531,0.919 			"/>
			<polygon fill="#FFFFFF" points="355.289,57.622 382.531,57.622 382.531,30.38 			"/>
			<polygon fill="#FFFFFF" points="413.292,116.543 440.535,116.543 413.292,89.3 			"/>
			<polygon fill="#FFFFFF" points="413.291,57.622 440.534,57.622 413.291,30.38 			"/>
			<polygon fill="#FFFFFF" points="354.37,0 354.37,27.243 381.612,0 			"/>
			<polygon fill="#FFFFFF" points="384.749,87.083 411.993,87.083 411.993,59.84 			"/>
			<polygon fill="#FFFFFF" points="384.749,88.382 411.993,115.625 411.993,88.382 			"/>
			<polygon fill="#FFFFFF" points="383.831,116.543 411.074,116.543 383.831,89.301 			"/>
			<polygon fill="#FFFFFF" points="383.831,58.921 383.831,86.164 411.074,58.921 			"/>
			<polygon fill="#FFFFFF" points="383.831,57.622 411.074,57.622 383.831,30.379 			"/>
			<polygon fill="#FFFFFF" points="384.749,28.162 411.992,28.162 411.992,0.919 			"/>
			<polygon fill="#FFFFFF" points="384.751,29.46 411.993,56.703 411.993,29.46 			"/>
			<polygon fill="#FFFFFF" points="383.831,0 383.831,27.243 411.074,0 			"/>
			<polygon fill="#FFFFFF" points="31.221,58.921 58.463,86.165 58.463,58.921 			"/>
			<polygon fill="#FFFFFF" points="1.76,58.922 29.002,86.165 29.002,58.922 			"/>
			<polygon fill="#FFFFFF" points="1.76,88.382 29.002,115.625 29.002,88.382 			"/>
			<polygon fill="#FFFFFF" points="30.302,88.382 30.302,115.625 57.545,88.382 			"/>
			<polygon fill="#FFFFFF" points="31.221,116.543 58.464,116.543 58.464,89.301 			"/>
			<polygon fill="#FFFFFF" points="30.303,87.083 57.545,87.083 30.303,59.841 			"/>
			<polygon fill="#FFFFFF" points="0.842,87.083 28.084,87.083 0.842,59.84 			"/>
			<polygon fill="#FFFFFF" points="30.302,57.623 57.545,57.623 30.302,30.379 			"/>
			<polygon fill="#FFFFFF" points="31.221,0 58.463,27.244 58.463,0 			"/>
			<polygon fill="#FFFFFF" points="30.302,28.161 57.545,28.161 30.302,0.918 			"/>
			<polygon fill="#FFFFFF" points="0.842,29.46 0.842,56.703 28.084,29.46 			"/>
			<polygon fill="#FFFFFF" points="1.76,28.162 29.002,28.162 29.002,0.919 			"/>
			<polygon fill="#FFFFFF" points="1.76,57.623 29.002,57.623 29.002,30.38 			"/>
			<polygon fill="#FFFFFF" points="31.221,29.461 58.463,56.703 58.463,29.461 			"/>
			<polygon fill="#FFFFFF" points="59.764,87.083 87.006,87.083 59.764,59.84 			"/>
			<polygon fill="#FFFFFF" points="59.764,88.382 59.764,115.625 87.006,88.382 			"/>
			<polygon fill="#FFFFFF" points="59.764,28.162 87.006,28.162 59.764,0.919 			"/>
			<polygon fill="#FFFFFF" points="59.764,29.461 59.764,56.704 87.006,29.461 			"/>
			<polygon fill="#FFFFFF" points="148.146,58.922 148.146,86.164 175.388,58.922 			"/>
			<polygon fill="#FFFFFF" points="119.603,58.922 146.846,86.164 146.846,58.922 			"/>
			<polygon fill="#FFFFFF" points="119.603,88.382 146.846,115.625 146.846,88.382 			"/>
			<polygon fill="#FFFFFF" points="148.146,116.543 175.388,116.543 148.146,89.301 			"/>
			<polygon fill="#FFFFFF" points="149.064,88.382 176.307,115.625 176.307,88.382 			"/>
			<polygon fill="#FFFFFF" points="149.064,87.083 176.307,87.083 176.307,59.839 			"/>
			<polygon fill="#FFFFFF" points="118.685,87.083 145.927,87.083 118.685,59.839 			"/>
			<polygon fill="#FFFFFF" points="149.063,29.461 176.306,56.703 176.306,29.461 			"/>
			<polygon fill="#FFFFFF" points="149.063,28.162 176.306,28.162 176.306,0.918 			"/>
			<polygon fill="#FFFFFF" points="148.146,0 148.146,27.243 175.388,0 			"/>
			<polygon fill="#FFFFFF" points="118.685,29.46 118.685,56.702 145.927,29.46 			"/>
			<polygon fill="#FFFFFF" points="119.603,28.162 146.846,28.162 146.846,0.918 			"/>
			<polygon fill="#FFFFFF" points="119.603,57.622 146.846,57.622 146.846,30.38 			"/>
			<polygon fill="#FFFFFF" points="178.524,58.922 205.768,86.164 205.768,58.922 			"/>
			<polygon fill="#FFFFFF" points="178.524,57.622 205.768,57.622 205.768,30.38 			"/>
			<polygon fill="#FFFFFF" points="148.146,57.622 175.388,57.622 148.146,30.38 			"/>
			<polygon fill="#FFFFFF" points="177.605,87.083 204.849,87.083 177.605,59.839 			"/>
			<polygon fill="#FFFFFF" points="177.605,88.382 177.605,115.625 204.849,88.382 			"/>
			<polygon fill="#FFFFFF" points="177.606,28.162 204.85,28.162 177.606,0.918 			"/>
			<polygon fill="#FFFFFF" points="177.606,29.461 177.606,56.703 204.85,29.461 			"/>
			<polygon fill="#FFFFFF" points="265.987,58.922 265.987,86.165 293.231,58.922 			"/>
			<polygon fill="#FFFFFF" points="237.446,58.922 264.688,86.165 264.688,58.922 			"/>
			<polygon fill="#FFFFFF" points="237.446,116.544 264.689,116.544 264.689,89.301 			"/>
			<polygon fill="#FFFFFF" points="265.987,116.544 293.231,116.544 265.987,89.301 			"/>
			<polygon fill="#FFFFFF" points="236.527,88.382 236.527,115.625 263.771,88.382 			"/>
			<polygon fill="#FFFFFF" points="266.907,88.382 294.15,115.625 294.15,88.382 			"/>
			<polygon fill="#FFFFFF" points="266.907,87.083 294.15,87.083 294.15,59.841 			"/>
			<polygon fill="#FFFFFF" points="236.527,87.083 263.771,87.083 236.527,59.841 			"/>
			<polygon fill="#FFFFFF" points="266.906,29.461 294.148,56.704 294.148,29.461 			"/>
			<polygon fill="#FFFFFF" points="266.906,28.162 294.148,28.162 294.148,0.919 			"/>
			<polygon fill="#FFFFFF" points="265.988,0 265.988,27.243 293.231,0 			"/>
			<polygon fill="#FFFFFF" points="236.527,29.46 236.527,56.703 263.771,29.46 			"/>
			<polygon fill="#FFFFFF" points="237.445,28.162 264.688,28.162 264.688,0.919 			"/>
			<polygon fill="#FFFFFF" points="237.445,57.623 264.688,57.623 264.688,30.38 			"/>
			<polygon fill="#FFFFFF" points="296.367,58.922 323.61,86.165 323.61,58.922 			"/>
			<polygon fill="#FFFFFF" points="296.367,57.623 323.61,57.623 323.61,30.38 			"/>
			<polygon fill="#FFFFFF" points="265.987,57.623 293.23,57.623 265.987,30.38 			"/>
			<polygon fill="#FFFFFF" points="295.449,87.083 322.692,87.083 295.449,59.841 			"/>
			<polygon fill="#FFFFFF" points="295.449,88.382 295.449,115.625 322.692,88.382 			"/>
			<polygon fill="#FFFFFF" points="295.449,28.162 322.692,28.162 295.449,0.919 			"/>
			<polygon fill="#FFFFFF" points="295.449,29.461 295.449,56.704 322.692,29.461 			"/>
			<polygon fill="#FFFFFF" points="236.527,0 236.527,27.243 263.771,0 			"/>
			<polygon fill="#FFFFFF" points="207.985,175.465 235.229,175.465 235.229,148.222 			"/>
			<polygon fill="#FFFFFF" points="207.985,204.973 235.229,204.973 235.229,177.73 			"/>
			<polygon fill="#FFFFFF" points="207.066,176.812 207.066,204.055 234.311,176.812 			"/>
			<polygon fill="#FFFFFF" points="207.066,235.733 207.066,262.976 234.311,235.733 			"/>
			<polygon fill="#FFFFFF" points="207.985,206.272 235.228,233.515 235.228,206.272 			"/>
			<polygon fill="#FFFFFF" points="207.066,234.434 234.311,234.434 207.066,207.191 			"/>
			<polygon fill="#FFFFFF" points="236.527,234.434 263.771,234.434 236.527,207.191 			"/>
			<polygon fill="#FFFFFF" points="266.906,204.973 294.15,204.973 294.15,177.73 			"/>
			<polygon fill="#FFFFFF" points="265.987,176.812 265.987,204.055 293.231,176.812 			"/>
			<polygon fill="#FFFFFF" points="265.987,234.434 293.231,234.434 265.987,207.191 			"/>
			<polygon fill="#FFFFFF" points="266.906,206.272 294.149,233.515 294.149,206.272 			"/>
			<polygon fill="#FFFFFF" points="266.906,235.733 294.149,262.976 294.149,235.733 			"/>
			<polygon fill="#FFFFFF" points="265.987,175.465 293.231,175.465 265.987,148.222 			"/>
			<polygon fill="#FFFFFF" points="236.527,175.465 263.771,175.465 236.527,148.222 			"/>
			<polygon fill="#FFFFFF" points="237.446,147.303 264.688,174.546 264.688,147.303 			"/>
			<polygon fill="#FFFFFF" points="251.526,220.353 264.688,233.515 264.688,207.191 			"/>
			<polygon fill="#FFFFFF" points="237.446,176.812 264.688,204.055 264.688,176.812 			"/>
			<polygon fill="#FFFFFF" points="236.527,177.73 236.527,204.055 249.689,190.893 			"/>
		</g>
	</g>
	<g>
		<path fill="#FFFFFF" d="M19.119,495.199c-6.078-1.747-10.501-3.894-13.27-6.441c-2.768-2.546-4.151-5.689-4.151-9.43
			c0-4.231,1.691-7.732,5.075-10.5c3.383-2.769,7.781-4.153,13.194-4.153c3.691,0,6.981,0.714,9.874,2.141
			c2.89,1.427,5.13,3.396,6.717,5.905s2.381,5.254,2.381,8.23h-7.124c0-3.259-1.033-5.821-3.1-7.686
			c-2.067-1.864-4.983-2.796-8.748-2.796c-3.494,0-6.219,0.771-8.176,2.312c-1.955,1.541-2.934,3.678-2.934,6.415
			c0,2.194,0.929,4.05,2.787,5.565c1.857,1.517,5.019,2.903,9.485,4.16c4.466,1.257,7.959,2.643,10.481,4.156
			s4.393,3.279,5.61,5.296c1.219,2.018,1.827,4.393,1.827,7.124c0,4.355-1.697,7.843-5.094,10.464
			c-3.396,2.62-7.936,3.931-13.619,3.931c-3.69,0-7.136-0.708-10.335-2.123c-3.198-1.415-5.665-3.352-7.399-5.813
			C0.867,509.495,0,506.702,0,503.577h7.123c0,3.248,1.2,5.813,3.599,7.695c2.399,1.882,5.604,2.824,9.615,2.824
			c3.74,0,6.606-0.763,8.601-2.289c1.992-1.525,2.988-3.604,2.988-6.238c0-2.633-0.922-4.669-2.768-6.108
			C27.313,498.022,23.966,496.601,19.119,495.199z"/>
		<path fill="#FFFFFF" d="M85.26,471.208H67.986v47.944h-7.05v-47.944H43.7v-5.795h41.56V471.208z"/>
		<path fill="#FFFFFF" d="M133.536,494.018c0,5.266-0.886,9.861-2.657,13.785c-1.771,3.925-4.281,6.921-7.529,8.988
			c-3.248,2.066-7.037,3.1-11.368,3.1c-4.232,0-7.984-1.039-11.257-3.119c-3.273-2.079-5.813-5.044-7.622-8.895
			c-1.808-3.851-2.737-8.311-2.786-13.38v-3.875c0-5.167,0.897-9.731,2.693-13.693c1.797-3.961,4.338-6.994,7.622-9.098
			c3.285-2.104,7.044-3.156,11.276-3.156c4.305,0,8.102,1.04,11.386,3.119c3.285,2.08,5.813,5.094,7.585,9.043
			s2.657,8.544,2.657,13.785V494.018z M126.486,490.548c0-6.373-1.279-11.263-3.838-14.672c-2.56-3.407-6.14-5.112-10.74-5.112
			c-4.479,0-8.004,1.705-10.574,5.112c-2.572,3.409-3.895,8.139-3.968,14.192v3.949c0,6.176,1.297,11.03,3.894,14.561
			c2.596,3.531,6.169,5.296,10.722,5.296c4.576,0,8.12-1.667,10.63-5.001s3.802-8.114,3.875-14.339V490.548z"/>
		<path fill="#FFFFFF" d="M183.695,502.101c-0.664,5.684-2.762,10.07-6.293,13.158c-3.53,3.088-8.225,4.632-14.08,4.632
			c-6.349,0-11.437-2.276-15.262-6.828c-3.827-4.552-5.74-10.642-5.74-18.27v-5.167c0-4.995,0.893-9.387,2.677-13.177
			c1.783-3.789,4.312-6.699,7.585-8.729c3.271-2.03,7.062-3.045,11.367-3.045c5.708,0,10.285,1.594,13.73,4.78
			c3.444,3.187,5.449,7.598,6.016,13.232h-7.123c-0.615-4.294-1.95-7.404-4.004-9.329c-2.056-1.925-4.928-2.888-8.619-2.888
			c-4.527,0-8.077,1.675-10.647,5.024c-2.572,3.35-3.857,8.115-3.857,14.295v5.209c0,5.837,1.218,10.479,3.653,13.927
			c2.437,3.447,5.844,5.171,10.225,5.171c3.937,0,6.957-0.892,9.061-2.676c2.104-1.784,3.5-4.89,4.189-9.319H183.695z"/>
		<path fill="#FFFFFF" d="M207.021,494.165l-6.569,6.829v18.159h-7.087v-53.739h7.087v26.575l23.88-26.575h8.563l-21.148,23.732
			l22.811,30.007h-8.49L207.021,494.165z"/>
		<path fill="#FFFFFF" d="M282.057,519.152h-7.123v-24.84h-27.091v24.84h-7.087v-53.739h7.087v23.105h27.091v-23.105h7.123V519.152z
			"/>
		<path fill="#FFFFFF" d="M335.981,494.018c0,5.266-0.886,9.861-2.657,13.785c-1.771,3.925-4.281,6.921-7.529,8.988
			c-3.248,2.066-7.037,3.1-11.368,3.1c-4.232,0-7.984-1.039-11.257-3.119c-3.273-2.079-5.813-5.044-7.622-8.895
			c-1.808-3.851-2.737-8.311-2.786-13.38v-3.875c0-5.167,0.897-9.731,2.693-13.693c1.797-3.961,4.338-6.994,7.622-9.098
			c3.285-2.104,7.044-3.156,11.276-3.156c4.305,0,8.102,1.04,11.386,3.119c3.285,2.08,5.813,5.094,7.585,9.043
			s2.657,8.544,2.657,13.785V494.018z M328.932,490.548c0-6.373-1.279-11.263-3.838-14.672c-2.56-3.407-6.14-5.112-10.74-5.112
			c-4.479,0-8.004,1.705-10.574,5.112c-2.572,3.409-3.895,8.139-3.968,14.192v3.949c0,6.176,1.297,11.03,3.894,14.561
			c2.596,3.531,6.169,5.296,10.722,5.296c4.576,0,8.12-1.667,10.63-5.001s3.802-8.114,3.875-14.339V490.548z"/>
		<path fill="#FFFFFF" d="M353.734,513.357h25.467v5.795H346.61v-53.739h7.124V513.357z"/>
		<path fill="#FFFFFF" d="M396.438,465.413l17.569,43.848l17.568-43.848h9.19v53.739h-7.087v-20.927l0.665-22.588l-17.643,43.516
			h-5.426l-17.605-43.405l0.701,22.478v20.927h-7.087v-53.739H396.438z"/>
	</g>
</g>
</svg>
