<?xml version="1.0" encoding="utf-8"?>
<!-- Generator: Adobe Illustrator 16.0.3, SVG Export Plug-In . SVG Version: 6.00 Build 0)  -->
<!DOCTYPE svg PUBLIC "-//W3C//DTD SVG 1.1//EN" "http://www.w3.org/Graphics/SVG/1.1/DTD/svg11.dtd">
<svg version="1.1" id="Warstwa_1" xmlns="http://www.w3.org/2000/svg" xmlns:xlink="http://www.w3.org/1999/xlink" x="0px" y="0px"
	 width="598.995px" height="704.15px" viewBox="0 0 598.995 704.15" enable-background="new 0 0 598.995 704.15"
	 xml:space="preserve">
<g>
	<g>
		<g>
			<path fill="#FFFFFF" d="M122.139,560.285c-0.113,0-0.228-0.022-0.336-0.067c-0.329-0.136-0.543-0.457-0.543-0.813V519.51
				c0-0.485,0.394-0.879,0.879-0.879h39.895c0.355,0,0.677,0.214,0.813,0.543c0.136,0.329,0.061,0.707-0.19,0.958l-39.895,39.895
				C122.592,560.195,122.368,560.285,122.139,560.285z M123.019,520.39v36.891l36.891-36.891H123.019z"/>
		</g>
		<g>
			<path fill="#FFFFFF" d="M162.033,560.284h-39.895c-0.355,0-0.676-0.214-0.813-0.543c-0.136-0.328-0.061-0.707,0.191-0.958
				l39.894-39.895c0.252-0.25,0.629-0.326,0.959-0.19c0.328,0.136,0.543,0.457,0.543,0.812v39.895
				C162.913,559.89,162.519,560.284,162.033,560.284z M124.262,558.524h36.892v-36.891L124.262,558.524z"/>
		</g>
		<g>
			<path fill="#FFFFFF" d="M162.033,520.39h-39.895c-0.355,0-0.676-0.214-0.813-0.543s-0.061-0.707,0.191-0.958l39.894-39.894
				c0.252-0.251,0.629-0.327,0.959-0.19c0.328,0.136,0.543,0.457,0.543,0.812v39.894C162.913,519.997,162.519,520.39,162.033,520.39
				z M124.262,518.631h36.892V481.74L124.262,518.631z"/>
		</g>
		<g>
			<path fill="#FFFFFF" d="M162.033,440.6c-0.229,0-0.454-0.089-0.622-0.258l-39.895-39.894c-0.251-0.251-0.327-0.629-0.19-0.959
				c0.136-0.328,0.457-0.542,0.813-0.542h39.895c0.486,0,0.879,0.394,0.879,0.879v39.894c0,0.356-0.214,0.677-0.543,0.813
				C162.26,440.578,162.146,440.6,162.033,440.6z M124.262,400.707l36.891,36.891v-36.891H124.262z"/>
		</g>
		<g>
			<path fill="#FFFFFF" d="M162.033,440.6h-39.894c-0.486,0-0.879-0.394-0.879-0.88v-39.894c0-0.355,0.214-0.676,0.543-0.812
				c0.33-0.136,0.707-0.061,0.958,0.19l39.894,39.894c0.251,0.251,0.327,0.63,0.191,0.958S162.388,440.6,162.033,440.6z
				 M123.019,438.841h36.891l-36.891-36.891V438.841z"/>
		</g>
		<g>
			<path fill="#FFFFFF" d="M162.033,480.496h-39.894c-0.486,0-0.879-0.394-0.879-0.879v-39.895c0-0.355,0.214-0.676,0.543-0.812
				c0.33-0.136,0.707-0.061,0.958,0.19l39.894,39.895c0.251,0.251,0.327,0.63,0.191,0.958
				C162.709,480.281,162.388,480.496,162.033,480.496z M123.019,478.736h36.891l-36.891-36.891V478.736z"/>
		</g>
		<g>
			<path fill="#FFFFFF" d="M122.139,520.39c-0.113,0-0.228-0.022-0.336-0.067c-0.329-0.136-0.543-0.457-0.543-0.813v-39.895
				c0-0.486,0.394-0.879,0.879-0.879h39.894c0.355,0,0.676,0.214,0.813,0.543c0.136,0.329,0.061,0.707-0.191,0.958l-39.894,39.895
				C122.592,520.3,122.368,520.39,122.139,520.39z M123.019,480.495v36.891l36.891-36.891H123.019z"/>
		</g>
		<g>
			<path fill="#FFFFFF" d="M162.032,480.495c-0.229,0-0.454-0.089-0.622-0.258l-39.894-39.895c-0.251-0.251-0.327-0.629-0.191-0.958
				c0.136-0.329,0.457-0.543,0.813-0.543h39.893c0.486,0,0.88,0.394,0.88,0.88v39.894c0,0.356-0.214,0.677-0.543,0.813
				C162.26,480.473,162.145,480.495,162.032,480.495z M124.262,440.601l36.891,36.892v-36.892H124.262z"/>
		</g>
		<g>
			<path fill="#FFFFFF" d="M241.822,560.285c-0.113,0-0.228-0.022-0.336-0.066c-0.329-0.136-0.543-0.457-0.543-0.813v-39.895
				c0-0.486,0.394-0.88,0.88-0.88h39.894c0.356,0,0.677,0.215,0.813,0.543c0.136,0.329,0.061,0.707-0.191,0.959l-39.895,39.894
				C242.276,560.196,242.051,560.285,241.822,560.285z M242.702,520.391v36.892l36.892-36.892H242.702z"/>
		</g>
		<g>
			<path fill="#FFFFFF" d="M281.717,560.285h-39.894c-0.356,0-0.677-0.214-0.813-0.543c-0.136-0.329-0.061-0.707,0.191-0.959
				l39.895-39.894c0.251-0.251,0.629-0.327,0.958-0.19c0.329,0.136,0.543,0.457,0.543,0.812v39.895
				C282.597,559.891,282.203,560.285,281.717,560.285z M243.946,558.525h36.891v-36.892L243.946,558.525z"/>
		</g>
		<g>
			<path fill="#FFFFFF" d="M281.717,520.391h-39.894c-0.356,0-0.677-0.214-0.813-0.542c-0.136-0.329-0.061-0.708,0.191-0.959
				l39.895-39.894c0.251-0.251,0.629-0.327,0.958-0.19c0.329,0.136,0.543,0.457,0.543,0.813v39.894
				C282.597,519.997,282.203,520.391,281.717,520.391z M243.946,518.631h36.891v-36.891L243.946,518.631z"/>
		</g>
		<g>
			<path fill="#FFFFFF" d="M281.717,440.601c-0.229,0-0.454-0.089-0.623-0.258L241.2,400.449c-0.251-0.251-0.327-0.629-0.191-0.958
				c0.136-0.329,0.457-0.543,0.813-0.543h39.895c0.486,0,0.879,0.394,0.879,0.879v39.894c0,0.356-0.214,0.677-0.542,0.813
				C281.944,440.579,281.83,440.601,281.717,440.601z M243.945,400.707l36.892,36.891v-36.891H243.945z"/>
		</g>
		<g>
			<path fill="#FFFFFF" d="M281.716,440.601h-39.894c-0.486,0-0.88-0.394-0.88-0.879v-39.894c0-0.355,0.214-0.676,0.543-0.812
				c0.33-0.136,0.708-0.061,0.958,0.19l39.894,39.894c0.251,0.251,0.327,0.63,0.19,0.958
				C282.393,440.386,282.072,440.601,281.716,440.601z M242.702,438.841h36.891l-36.891-36.891V438.841z"/>
		</g>
		<g>
			<path fill="#FFFFFF" d="M321.611,440.601c-0.229,0-0.453-0.089-0.622-0.258l-39.895-39.894c-0.251-0.251-0.327-0.629-0.191-0.958
				c0.136-0.329,0.457-0.543,0.813-0.543h39.895c0.486,0,0.88,0.394,0.88,0.879v39.894c0,0.356-0.214,0.677-0.543,0.813
				C321.839,440.579,321.725,440.601,321.611,440.601z M283.84,400.707l36.892,36.891v-36.891H283.84z"/>
		</g>
		<g>
			<path fill="#FFFFFF" d="M321.611,440.601h-39.893c-0.486,0-0.88-0.394-0.88-0.879v-39.894c0-0.355,0.214-0.676,0.543-0.812
				c0.33-0.136,0.708-0.061,0.958,0.19l39.894,39.894c0.251,0.251,0.327,0.63,0.19,0.958
				C322.288,440.386,321.967,440.601,321.611,440.601z M282.598,438.841h36.891l-36.891-36.891V438.841z"/>
		</g>
		<g>
			<path fill="#FFFFFF" d="M241.822,440.601c-0.229,0-0.454-0.089-0.622-0.258l-39.894-39.894c-0.251-0.251-0.327-0.629-0.191-0.958
				c0.136-0.329,0.457-0.543,0.813-0.543h39.894c0.486,0,0.879,0.394,0.879,0.879v39.894c0,0.356-0.214,0.677-0.543,0.813
				C242.049,440.579,241.935,440.601,241.822,440.601z M204.051,400.707l36.891,36.891v-36.891H204.051z"/>
		</g>
		<g>
			<path fill="#FFFFFF" d="M241.822,440.601h-39.894c-0.486,0-0.879-0.394-0.879-0.879v-39.894c0-0.355,0.214-0.676,0.543-0.812
				c0.33-0.136,0.707-0.061,0.958,0.19l39.893,39.894c0.252,0.251,0.327,0.63,0.191,0.958
				C242.498,440.386,242.177,440.601,241.822,440.601z M202.808,438.841h36.89l-36.89-36.891V438.841z"/>
		</g>
		<g>
			<path fill="#FFFFFF" d="M281.717,480.496c-0.229,0-0.454-0.089-0.623-0.258L241.2,440.344c-0.251-0.251-0.327-0.629-0.191-0.958
				c0.136-0.329,0.457-0.543,0.813-0.543h39.895c0.486,0,0.879,0.394,0.879,0.879v39.895c0,0.356-0.214,0.677-0.542,0.813
				C281.944,480.474,281.83,480.496,281.717,480.496z M243.945,440.602l36.892,36.891v-36.891H243.945z"/>
		</g>
		<g>
			<path fill="#FFFFFF" d="M281.716,480.496h-39.894c-0.486,0-0.88-0.394-0.88-0.879v-39.895c0-0.355,0.214-0.676,0.543-0.812
				c0.33-0.136,0.708-0.061,0.958,0.19l39.894,39.895c0.251,0.251,0.327,0.63,0.19,0.958
				C282.393,480.281,282.072,480.496,281.716,480.496z M242.702,478.736h36.891l-36.891-36.891V478.736z"/>
		</g>
		<g>
			<path fill="#FFFFFF" d="M241.822,520.39c-0.113,0-0.228-0.022-0.336-0.067c-0.329-0.136-0.543-0.457-0.543-0.813v-39.894
				c0-0.486,0.394-0.88,0.88-0.88h39.894c0.355,0,0.677,0.214,0.813,0.543c0.136,0.329,0.061,0.707-0.19,0.958l-39.894,39.895
				C242.276,520.301,242.051,520.39,241.822,520.39z M242.702,480.496v36.892l36.891-36.892H242.702z"/>
		</g>
		<g>
			<path fill="#FFFFFF" d="M42.349,560.285c-0.113,0-0.228-0.022-0.336-0.067c-0.329-0.136-0.543-0.457-0.543-0.813V519.51
				c0-0.485,0.394-0.879,0.88-0.879h39.894c0.356,0,0.677,0.214,0.813,0.543c0.136,0.329,0.061,0.707-0.191,0.958l-39.894,39.895
				C42.803,560.195,42.578,560.285,42.349,560.285z M43.229,520.39v36.891L80.12,520.39H43.229z"/>
		</g>
		<g>
			<path fill="#FFFFFF" d="M82.243,560.284H42.35c-0.356,0-0.677-0.214-0.813-0.543c-0.136-0.328-0.061-0.707,0.191-0.958
				l39.894-39.895c0.251-0.25,0.629-0.326,0.958-0.19c0.329,0.136,0.543,0.457,0.543,0.812v39.895
				C83.123,559.89,82.729,560.284,82.243,560.284z M44.473,558.524h36.891v-36.891L44.473,558.524z"/>
		</g>
		<g>
			<path fill="#FFFFFF" d="M42.349,520.39H2.454c-0.355,0-0.676-0.214-0.813-0.543c-0.136-0.329-0.061-0.707,0.191-0.958
				l39.894-39.894c0.252-0.251,0.629-0.327,0.959-0.19c0.328,0.136,0.543,0.457,0.543,0.812v39.894
				C43.229,519.997,42.834,520.39,42.349,520.39z M4.578,518.631h36.892V481.74L4.578,518.631z"/>
		</g>
		<g>
			<path fill="#FFFFFF" d="M42.349,440.6c-0.229,0-0.454-0.089-0.623-0.258L1.832,400.449c-0.251-0.251-0.327-0.629-0.19-0.959
				c0.136-0.328,0.457-0.542,0.813-0.542h39.894c0.486,0,0.879,0.394,0.879,0.879v39.894c0,0.356-0.214,0.677-0.543,0.813
				C42.576,440.578,42.461,440.6,42.349,440.6z M4.578,400.707l36.891,36.891v-36.891H4.578z"/>
		</g>
		<g>
			<path fill="#FFFFFF" d="M42.348,440.6H2.455c-0.486,0-0.879-0.394-0.879-0.88v-39.894c0-0.355,0.214-0.676,0.543-0.812
				c0.33-0.136,0.707-0.061,0.958,0.19l39.893,39.894c0.252,0.251,0.327,0.63,0.191,0.958S42.704,440.6,42.348,440.6z
				 M3.334,438.841h36.89L3.334,401.95V438.841z"/>
		</g>
		<g>
			<path fill="#FFFFFF" d="M42.349,560.285c-0.229,0-0.454-0.089-0.623-0.258L1.832,520.133c-0.251-0.252-0.327-0.63-0.19-0.959
				c0.136-0.328,0.457-0.543,0.813-0.543h39.894c0.486,0,0.879,0.394,0.879,0.88v39.895c0,0.356-0.214,0.677-0.543,0.813
				C42.576,560.263,42.461,560.285,42.349,560.285z M4.578,520.391l36.891,36.892v-36.892H4.578z"/>
		</g>
		<g>
			<path fill="#FFFFFF" d="M42.348,560.285H2.455c-0.486,0-0.879-0.394-0.879-0.879v-39.895c0-0.355,0.214-0.676,0.543-0.813
				c0.33-0.136,0.707-0.061,0.958,0.19l39.893,39.895c0.252,0.251,0.327,0.63,0.191,0.958S42.704,560.285,42.348,560.285z
				 M3.334,558.526h36.89l-36.89-36.891V558.526z"/>
		</g>
		<g>
			<path fill="#FFFFFF" d="M42.349,480.495c-0.229,0-0.454-0.089-0.623-0.258L1.832,440.343c-0.251-0.251-0.327-0.629-0.19-0.958
				c0.136-0.329,0.457-0.543,0.813-0.543h39.895c0.486,0,0.879,0.394,0.879,0.88v39.894c0,0.356-0.214,0.677-0.543,0.813
				C42.576,480.473,42.461,480.495,42.349,480.495z M4.577,440.601l36.891,36.892v-36.892H4.577z"/>
		</g>
		<g>
			<path fill="#FFFFFF" d="M42.348,480.495H2.454c-0.485,0-0.879-0.394-0.879-0.88v-39.894c0-0.355,0.214-0.676,0.543-0.813
				c0.33-0.136,0.708-0.061,0.958,0.19l39.894,39.895c0.252,0.251,0.327,0.63,0.191,0.958S42.704,480.495,42.348,480.495z
				 M3.334,478.736h36.891L3.334,441.845V478.736z"/>
		</g>
		<g>
			<path fill="#FFFFFF" d="M2.454,520.39c-0.113,0-0.228-0.022-0.336-0.067c-0.329-0.136-0.543-0.457-0.543-0.813v-39.895
				c0-0.486,0.394-0.879,0.879-0.879h39.894c0.355,0,0.676,0.214,0.813,0.543c0.136,0.329,0.061,0.707-0.191,0.958L3.076,520.132
				C2.908,520.3,2.683,520.39,2.454,520.39z M3.334,480.495v36.891l36.891-36.891H3.334z"/>
		</g>
		<g>
			<path fill="#FFFFFF" d="M401.4,520.392c-0.113,0-0.228-0.022-0.336-0.067c-0.329-0.136-0.543-0.457-0.543-0.813v-39.894
				c0-0.486,0.394-0.88,0.879-0.88h39.894c0.355,0,0.677,0.214,0.813,0.543c0.137,0.329,0.061,0.707-0.191,0.958l-39.893,39.895
				C401.854,520.302,401.63,520.392,401.4,520.392z M402.281,480.497v36.891l36.891-36.891H402.281z"/>
		</g>
		<g>
			<path fill="#FFFFFF" d="M401.4,520.392c-0.229,0-0.454-0.089-0.622-0.258l-39.895-39.895c-0.251-0.251-0.327-0.629-0.191-0.958
				c0.136-0.329,0.457-0.543,0.813-0.543H401.4c0.486,0,0.879,0.394,0.879,0.88v39.894c0,0.356-0.214,0.677-0.543,0.813
				C401.628,520.37,401.514,520.392,401.4,520.392z M363.629,480.497l36.891,36.891v-36.891H363.629z"/>
		</g>
		<g>
			<path fill="#FFFFFF" d="M401.4,560.285c-0.229,0-0.454-0.089-0.623-0.258l-39.894-39.894c-0.251-0.252-0.327-0.63-0.191-0.959
				c0.136-0.328,0.457-0.543,0.813-0.543h39.894c0.486,0,0.88,0.394,0.88,0.88v39.895c0,0.356-0.214,0.677-0.543,0.813
				C401.628,560.263,401.513,560.285,401.4,560.285z M363.629,520.391l36.891,36.892v-36.892H363.629z"/>
		</g>
		<g>
			<path fill="#FFFFFF" d="M401.4,560.285h-39.895c-0.486,0-0.879-0.394-0.879-0.879v-39.894c0-0.355,0.214-0.676,0.543-0.812
				c0.33-0.136,0.707-0.061,0.958,0.19l39.895,39.894c0.251,0.251,0.326,0.63,0.19,0.958
				C402.077,560.071,401.755,560.285,401.4,560.285z M362.386,558.526h36.891l-36.891-36.891V558.526z"/>
		</g>
		<g>
			<path fill="#FFFFFF" d="M401.399,520.391h-39.894c-0.486,0-0.879-0.394-0.879-0.879v-39.895c0-0.355,0.214-0.676,0.543-0.812
				c0.33-0.136,0.707-0.061,0.958,0.19l39.894,39.894c0.251,0.251,0.327,0.63,0.191,0.959
				C402.077,520.176,401.755,520.391,401.399,520.391z M362.386,518.631h36.891l-36.891-36.891V518.631z"/>
		</g>
		<g>
			<path fill="#FFFFFF" d="M401.401,440.602c-0.113,0-0.228-0.022-0.336-0.067c-0.329-0.136-0.543-0.457-0.543-0.813v-39.895
				c0-0.486,0.394-0.879,0.88-0.879h39.893c0.355,0,0.677,0.214,0.813,0.543c0.137,0.329,0.062,0.707-0.189,0.958l-39.895,39.895
				C401.855,440.512,401.63,440.602,401.401,440.602z M402.281,400.707v36.891l36.891-36.891H402.281z"/>
		</g>
		<g>
			<path fill="#FFFFFF" d="M441.295,440.601h-39.893c-0.356,0-0.677-0.214-0.813-0.543c-0.136-0.328-0.061-0.707,0.191-0.958
				l39.894-39.894c0.252-0.251,0.629-0.327,0.959-0.19c0.328,0.136,0.543,0.457,0.543,0.812l-0.001,39.894
				C442.175,440.207,441.781,440.601,441.295,440.601z M403.525,438.841h36.891v-36.891L403.525,438.841z"/>
		</g>
		<g>
			<path fill="#FFFFFF" d="M361.505,480.495c-0.113,0-0.228-0.022-0.336-0.067c-0.329-0.136-0.543-0.457-0.543-0.813v-39.894
				c0-0.486,0.394-0.88,0.879-0.88H401.4c0.355,0,0.676,0.214,0.812,0.543c0.136,0.329,0.062,0.707-0.19,0.958l-39.895,39.895
				C361.959,480.406,361.735,480.495,361.505,480.495z M362.386,440.601v36.892l36.891-36.892H362.386z"/>
		</g>
		<g>
			<path fill="#FFFFFF" d="M401.399,440.602h-39.894c-0.356,0-0.677-0.214-0.813-0.543c-0.136-0.329-0.061-0.707,0.191-0.959
				l39.895-39.894c0.251-0.251,0.629-0.326,0.958-0.19c0.329,0.136,0.543,0.457,0.543,0.813v39.894
				C402.279,440.208,401.885,440.602,401.399,440.602z M363.629,438.842h36.891v-36.891L363.629,438.842z"/>
		</g>
		<g>
			<path fill="#FFFFFF" d="M401.399,480.497h-39.894c-0.356,0-0.677-0.214-0.813-0.543c-0.136-0.329-0.061-0.707,0.191-0.958
				l39.894-39.895c0.252-0.251,0.629-0.327,0.958-0.19c0.329,0.136,0.543,0.457,0.543,0.813v39.894
				C402.279,480.103,401.885,480.497,401.399,480.497z M363.629,478.737h36.891v-36.892L363.629,478.737z"/>
		</g>
		<g>
			<path fill="#FFFFFF" d="M441.295,560.285h-39.893c-0.486,0-0.88-0.394-0.88-0.88V519.51c0-0.355,0.214-0.676,0.543-0.812
				c0.33-0.136,0.707-0.061,0.958,0.19l39.895,39.894c0.251,0.252,0.326,0.63,0.19,0.959S441.651,560.285,441.295,560.285z
				 M402.281,558.525h36.891l-36.891-36.892V558.525z"/>
		</g>
		<g>
			<path fill="#FFFFFF" d="M441.296,560.284c-0.229,0-0.453-0.089-0.622-0.258l-39.894-39.894c-0.251-0.251-0.327-0.629-0.19-0.958
				c0.136-0.329,0.457-0.543,0.813-0.543h39.894c0.485,0,0.88,0.394,0.88,0.879v39.895c0,0.356-0.215,0.677-0.543,0.813
				C441.523,560.262,441.41,560.284,441.296,560.284z M403.525,520.39l36.891,36.891V520.39H403.525z"/>
		</g>
		<g>
			<path fill="#FFFFFF" d="M441.295,480.497h-39.894c-0.486,0-0.879-0.394-0.879-0.88v-39.894c0-0.355,0.214-0.676,0.543-0.813
				c0.33-0.136,0.707-0.061,0.958,0.19l39.893,39.895c0.252,0.251,0.328,0.63,0.191,0.958
				C441.972,480.282,441.65,480.497,441.295,480.497z M402.281,478.737h36.891l-36.891-36.892V478.737z"/>
		</g>
		<g>
			<path fill="#FFFFFF" d="M361.505,440.602c-0.113,0-0.228-0.022-0.336-0.067c-0.329-0.136-0.543-0.457-0.543-0.813v-39.894
				c0-0.486,0.394-0.88,0.879-0.88H401.4c0.355,0,0.676,0.214,0.812,0.543c0.136,0.329,0.062,0.707-0.19,0.959l-39.895,39.894
				C361.959,440.512,361.735,440.602,361.505,440.602z M362.386,400.708v36.891l36.891-36.891H362.386z"/>
		</g>
		<g>
			<polygon fill="#FFFFFF" points="481.07,279.264 481.07,316.155 517.961,279.264 			"/>
			<polygon fill="#FFFFFF" points="442.42,279.264 479.31,316.155 479.31,279.264 			"/>
			<polygon fill="#FFFFFF" points="441.176,319.158 441.176,356.05 478.065,319.158 			"/>
			<polygon fill="#FFFFFF" points="522.209,277.505 559.1,277.505 559.1,240.614 			"/>
			<polygon fill="#FFFFFF" points="482.314,319.158 519.205,356.05 519.205,319.158 			"/>
			<polygon fill="#FFFFFF" points="482.314,317.398 519.205,317.398 519.205,280.507 			"/>
			<polygon fill="#FFFFFF" points="441.176,317.398 478.065,317.398 441.176,280.507 			"/>
			<polygon fill="#FFFFFF" points="482.313,239.369 519.205,276.26 519.205,239.369 			"/>
			<polygon fill="#FFFFFF" points="481.068,237.609 517.961,237.609 481.068,200.718 			"/>
			<polygon fill="#FFFFFF" points="441.176,199.474 441.176,236.365 478.065,199.474 			"/>
			<polygon fill="#FFFFFF" points="441.176,239.368 441.176,276.259 478.065,239.368 			"/>
			<polygon fill="#FFFFFF" points="442.419,237.609 479.31,237.609 479.31,200.718 			"/>
			<polygon fill="#FFFFFF" points="442.42,277.504 479.31,277.504 479.31,240.613 			"/>
			<polygon fill="#FFFFFF" points="481.07,277.504 517.961,277.504 481.07,240.613 			"/>
			<polygon fill="#FFFFFF" points="560.861,279.264 560.861,316.155 597.752,279.264 			"/>
			<polygon fill="#FFFFFF" points="562.104,319.158 598.995,356.05 598.995,319.158 			"/>
			<polygon fill="#FFFFFF" points="562.104,317.398 598.995,317.398 598.995,280.507 			"/>
			<polygon fill="#FFFFFF" points="562.104,239.369 598.995,276.26 598.995,239.369 			"/>
			<polygon fill="#FFFFFF" points="562.104,237.609 598.995,237.609 598.995,200.718 			"/>
			<polygon fill="#FFFFFF" points="560.861,199.474 560.861,236.365 597.752,199.474 			"/>
			<polygon fill="#FFFFFF" points="560.861,277.504 597.752,277.504 560.861,240.613 			"/>
			<polygon fill="#FFFFFF" points="520.965,317.398 557.856,317.398 520.965,280.507 			"/>
			<polygon fill="#FFFFFF" points="520.965,319.158 520.965,356.05 557.856,319.158 			"/>
			<polygon fill="#FFFFFF" points="522.209,279.266 559.1,316.157 559.1,279.266 			"/>
			<polygon fill="#FFFFFF" points="522.211,237.609 559.1,237.609 559.1,200.718 			"/>
			<polygon fill="#FFFFFF" points="520.967,239.369 520.967,276.26 557.856,239.369 			"/>
			<polygon fill="#FFFFFF" points="82.124,239.371 82.124,276.262 119.015,239.371 			"/>
			<polygon fill="#FFFFFF" points="82.124,317.399 119.015,317.399 82.124,280.508 			"/>
			<polygon fill="#FFFFFF" points="43.472,239.37 80.363,276.261 80.363,239.37 			"/>
			<polygon fill="#FFFFFF" points="43.472,237.61 80.363,237.61 80.363,200.719 			"/>
			<polygon fill="#FFFFFF" points="82.124,237.609 119.015,237.609 82.124,200.718 			"/>
			<polygon fill="#FFFFFF" points="42.229,279.265 42.229,316.155 79.12,279.265 			"/>
			<polygon fill="#FFFFFF" points="42.229,277.505 79.12,277.505 42.229,240.614 			"/>
			<polygon fill="#FFFFFF" points="3.579,277.505 40.47,277.505 40.47,240.614 			"/>
			<polygon fill="#FFFFFF" points="3.579,279.263 40.471,316.155 40.471,279.263 			"/>
			<polygon fill="#FFFFFF" points="43.474,319.158 80.364,356.05 80.364,319.158 			"/>
			<polygon fill="#FFFFFF" points="43.474,317.398 80.364,317.398 80.364,280.508 			"/>
			<polygon fill="#FFFFFF" points="82.124,319.158 82.124,356.05 119.015,319.158 			"/>
			<polygon fill="#FFFFFF" points="42.229,357.293 79.12,357.293 42.229,320.402 			"/>
			<polygon fill="#FFFFFF" points="3.579,357.293 40.47,357.293 40.471,320.402 			"/>
			<polygon fill="#FFFFFF" points="2.335,319.158 2.334,356.05 39.226,319.158 			"/>
			<polygon fill="#FFFFFF" points="2.335,317.399 39.227,317.399 2.335,280.508 			"/>
			<polygon fill="#FFFFFF" points="2.334,239.37 2.334,276.261 39.226,239.37 			"/>
			<polygon fill="#FFFFFF" points="2.334,237.609 39.226,237.609 2.334,200.718 			"/>
			<polygon fill="#FFFFFF" points="42.229,199.475 42.229,236.366 79.12,199.475 			"/>
			<polygon fill="#FFFFFF" points="3.579,199.476 40.47,236.367 40.47,199.476 			"/>
			<polygon fill="#FFFFFF" points="201.808,279.264 201.808,316.155 238.699,279.264 			"/>
			<polygon fill="#FFFFFF" points="163.157,279.264 200.048,316.155 200.048,279.264 			"/>
			<polygon fill="#FFFFFF" points="163.157,319.158 200.048,356.049 200.048,319.158 			"/>
			<polygon fill="#FFFFFF" points="161.913,357.293 198.804,357.293 161.913,320.403 			"/>
			<polygon fill="#FFFFFF" points="161.913,317.399 198.804,317.399 161.913,280.507 			"/>
			<polygon fill="#FFFFFF" points="201.809,199.475 201.809,236.365 238.699,199.475 			"/>
			<polygon fill="#FFFFFF" points="203.052,237.609 239.943,237.609 239.944,200.718 			"/>
			<polygon fill="#FFFFFF" points="161.913,239.368 161.913,276.259 198.804,239.368 			"/>
			<polygon fill="#FFFFFF" points="163.156,237.609 200.047,237.609 200.047,200.718 			"/>
			<polygon fill="#FFFFFF" points="163.157,277.504 200.048,277.504 200.048,240.614 			"/>
			<polygon fill="#FFFFFF" points="201.809,357.292 238.7,357.292 201.809,320.401 			"/>
			<polygon fill="#FFFFFF" points="203.053,319.157 239.944,356.048 239.944,319.157 			"/>
			<polygon fill="#FFFFFF" points="201.808,277.504 238.699,277.504 201.808,240.614 			"/>
			<polygon fill="#FFFFFF" points="161.913,199.475 161.913,236.365 198.804,199.475 			"/>
			<polygon fill="#FFFFFF" points="560.859,79.79 560.859,116.681 597.751,79.79 			"/>
			<polygon fill="#FFFFFF" points="482.314,79.79 519.205,116.681 519.205,79.79 			"/>
			<polygon fill="#FFFFFF" points="482.314,119.684 519.205,156.575 519.205,119.684 			"/>
			<polygon fill="#FFFFFF" points="481.07,157.819 517.961,157.819 481.07,120.929 			"/>
			<polygon fill="#FFFFFF" points="481.07,117.925 517.961,117.925 481.07,81.033 			"/>
			<polygon fill="#FFFFFF" points="560.861,0 560.86,36.891 597.752,0 			"/>
			<polygon fill="#FFFFFF" points="481.07,39.894 481.07,76.785 517.961,39.894 			"/>
			<polygon fill="#FFFFFF" points="482.313,38.135 519.205,38.135 519.205,1.245 			"/>
			<polygon fill="#FFFFFF" points="482.314,78.03 519.205,78.03 519.205,41.139 			"/>
			<polygon fill="#FFFFFF" points="560.86,157.818 597.752,157.818 560.86,120.927 			"/>
			<polygon fill="#FFFFFF" points="560.859,78.03 597.751,78.03 560.859,41.139 			"/>
			<polygon fill="#FFFFFF" points="481.07,0 481.07,36.891 517.961,0 			"/>
			<polygon fill="#FFFFFF" points="522.209,117.925 559.102,117.925 559.102,81.034 			"/>
			<polygon fill="#FFFFFF" points="522.209,119.684 559.102,156.575 559.102,119.684 			"/>
			<polygon fill="#FFFFFF" points="520.966,157.819 557.857,157.819 520.966,120.929 			"/>
			<polygon fill="#FFFFFF" points="520.966,79.79 520.966,116.681 557.857,79.79 			"/>
			<polygon fill="#FFFFFF" points="520.965,78.029 557.856,78.029 520.965,41.138 			"/>
			<polygon fill="#FFFFFF" points="522.209,38.135 559.1,38.135 559.1,1.245 			"/>
			<polygon fill="#FFFFFF" points="522.211,39.895 559.102,76.786 559.102,39.895 			"/>
			<polygon fill="#FFFFFF" points="520.966,0 520.966,36.891 557.857,0 			"/>
			<polygon fill="#FFFFFF" points="43.472,79.789 80.363,116.682 80.363,79.789 			"/>
			<polygon fill="#FFFFFF" points="3.578,79.79 40.468,116.681 40.468,79.79 			"/>
			<polygon fill="#FFFFFF" points="3.578,119.684 40.468,156.575 40.468,119.684 			"/>
			<polygon fill="#FFFFFF" points="42.229,119.684 42.229,156.575 79.12,119.684 			"/>
			<polygon fill="#FFFFFF" points="43.472,157.819 80.364,157.819 80.364,120.928 			"/>
			<polygon fill="#FFFFFF" points="42.229,117.926 79.12,117.926 42.229,81.035 			"/>
			<polygon fill="#FFFFFF" points="2.334,117.925 39.225,117.925 2.334,81.034 			"/>
			<polygon fill="#FFFFFF" points="42.229,78.031 79.12,78.031 42.229,41.139 			"/>
			<polygon fill="#FFFFFF" points="43.472,0 80.363,36.892 80.363,0 			"/>
			<polygon fill="#FFFFFF" points="42.229,38.134 79.12,38.134 42.229,1.243 			"/>
			<polygon fill="#FFFFFF" points="2.334,39.894 2.334,76.785 39.225,39.894 			"/>
			<polygon fill="#FFFFFF" points="3.577,38.135 40.468,38.135 40.468,1.245 			"/>
			<polygon fill="#FFFFFF" points="3.577,78.03 40.468,78.03 40.468,41.139 			"/>
			<polygon fill="#FFFFFF" points="43.472,39.895 80.363,76.786 80.363,39.895 			"/>
			<polygon fill="#FFFFFF" points="82.124,117.925 119.015,117.925 82.124,81.034 			"/>
			<polygon fill="#FFFFFF" points="82.124,119.684 82.124,156.575 119.015,119.684 			"/>
			<polygon fill="#FFFFFF" points="82.125,38.135 119.015,38.135 82.125,1.245 			"/>
			<polygon fill="#FFFFFF" points="82.125,39.895 82.125,76.786 119.015,39.895 			"/>
			<polygon fill="#FFFFFF" points="201.808,79.79 201.808,116.681 238.699,79.79 			"/>
			<polygon fill="#FFFFFF" points="163.156,79.79 200.048,116.681 200.048,79.79 			"/>
			<polygon fill="#FFFFFF" points="163.156,119.684 200.047,156.575 200.047,119.684 			"/>
			<polygon fill="#FFFFFF" points="201.808,157.819 238.699,157.819 201.808,120.928 			"/>
			<polygon fill="#FFFFFF" points="203.051,119.684 239.943,156.575 239.943,119.684 			"/>
			<polygon fill="#FFFFFF" points="203.051,117.924 239.943,117.924 239.943,81.033 			"/>
			<polygon fill="#FFFFFF" points="161.913,117.925 198.803,117.925 161.913,81.033 			"/>
			<polygon fill="#FFFFFF" points="203.05,39.895 239.941,76.786 239.941,39.895 			"/>
			<polygon fill="#FFFFFF" points="203.05,38.135 239.941,38.135 239.941,1.244 			"/>
			<polygon fill="#FFFFFF" points="201.808,0 201.808,36.891 238.699,0 			"/>
			<polygon fill="#FFFFFF" points="161.913,39.894 161.913,76.784 198.804,39.894 			"/>
			<polygon fill="#FFFFFF" points="163.156,38.135 200.047,38.135 200.047,1.244 			"/>
			<polygon fill="#FFFFFF" points="163.156,78.03 200.047,78.03 200.047,41.139 			"/>
			<polygon fill="#FFFFFF" points="242.946,79.79 279.838,116.681 279.838,79.79 			"/>
			<polygon fill="#FFFFFF" points="242.946,78.03 279.838,78.03 279.838,41.139 			"/>
			<polygon fill="#FFFFFF" points="201.808,78.03 238.699,78.03 201.808,41.139 			"/>
			<polygon fill="#FFFFFF" points="241.703,117.925 278.594,117.925 241.703,81.033 			"/>
			<polygon fill="#FFFFFF" points="241.703,119.684 241.703,156.575 278.594,119.684 			"/>
			<polygon fill="#FFFFFF" points="241.703,38.136 278.595,38.136 241.703,1.244 			"/>
			<polygon fill="#FFFFFF" points="241.703,39.895 241.703,76.786 278.595,39.895 			"/>
			<polygon fill="#FFFFFF" points="361.386,79.791 361.386,116.682 398.278,79.791 			"/>
			<polygon fill="#FFFFFF" points="322.736,79.791 359.627,116.682 359.627,79.791 			"/>
			<polygon fill="#FFFFFF" points="322.736,157.82 359.628,157.82 359.628,120.929 			"/>
			<polygon fill="#FFFFFF" points="361.386,157.82 398.278,157.82 361.386,120.929 			"/>
			<polygon fill="#FFFFFF" points="321.492,119.685 321.492,156.576 358.383,119.685 			"/>
			<polygon fill="#FFFFFF" points="362.631,119.685 399.522,156.576 399.522,119.685 			"/>
			<polygon fill="#FFFFFF" points="362.631,117.925 399.522,117.925 399.522,81.034 			"/>
			<polygon fill="#FFFFFF" points="321.492,117.925 358.383,117.925 321.492,81.034 			"/>
			<polygon fill="#FFFFFF" points="362.629,39.895 399.52,76.787 399.52,39.895 			"/>
			<polygon fill="#FFFFFF" points="362.629,38.136 399.52,38.136 399.52,1.245 			"/>
			<polygon fill="#FFFFFF" points="361.387,0 361.387,36.892 398.278,0 			"/>
			<polygon fill="#FFFFFF" points="321.492,39.894 321.492,76.785 358.383,39.894 			"/>
			<polygon fill="#FFFFFF" points="322.735,38.136 359.626,38.136 359.626,1.245 			"/>
			<polygon fill="#FFFFFF" points="322.735,78.031 359.627,78.031 359.627,41.14 			"/>
			<polygon fill="#FFFFFF" points="402.526,79.791 439.417,116.682 439.417,79.791 			"/>
			<polygon fill="#FFFFFF" points="402.525,78.031 439.417,78.031 439.417,41.14 			"/>
			<polygon fill="#FFFFFF" points="361.386,78.031 398.277,78.031 361.386,41.14 			"/>
			<polygon fill="#FFFFFF" points="401.282,117.925 438.174,117.925 401.282,81.034 			"/>
			<polygon fill="#FFFFFF" points="401.282,119.685 401.282,156.576 438.174,119.685 			"/>
			<polygon fill="#FFFFFF" points="401.283,38.136 438.174,38.136 401.283,1.245 			"/>
			<polygon fill="#FFFFFF" points="401.283,39.896 401.283,76.787 438.174,39.896 			"/>
			<polygon fill="#FFFFFF" points="321.492,0 321.492,36.892 358.383,0 			"/>
			<polygon fill="#FFFFFF" points="282.84,237.609 319.732,237.609 319.732,200.718 			"/>
			<polygon fill="#FFFFFF" points="282.84,277.568 319.732,277.568 319.732,240.676 			"/>
			<polygon fill="#FFFFFF" points="281.597,239.433 281.597,276.324 318.489,239.433 			"/>
			<polygon fill="#FFFFFF" points="281.597,319.222 281.597,356.113 318.489,319.222 			"/>
			<polygon fill="#FFFFFF" points="282.84,279.327 319.732,316.218 319.732,279.327 			"/>
			<polygon fill="#FFFFFF" points="281.597,317.462 318.489,317.462 281.597,280.571 			"/>
			<polygon fill="#FFFFFF" points="321.491,317.462 358.383,317.462 321.491,280.571 			"/>
			<polygon fill="#FFFFFF" points="362.63,277.568 399.522,277.568 399.522,240.676 			"/>
			<polygon fill="#FFFFFF" points="361.386,239.433 361.386,276.324 398.278,239.433 			"/>
			<polygon fill="#FFFFFF" points="361.386,317.462 398.278,317.462 361.386,280.571 			"/>
			<polygon fill="#FFFFFF" points="362.63,279.327 399.521,316.218 399.521,279.327 			"/>
			<polygon fill="#FFFFFF" points="362.63,319.222 399.521,356.113 399.521,319.222 			"/>
			<polygon fill="#FFFFFF" points="361.386,237.609 398.278,237.609 361.386,200.718 			"/>
			<polygon fill="#FFFFFF" points="321.492,237.609 358.383,237.609 321.492,200.718 			"/>
			<polygon fill="#FFFFFF" points="322.736,199.473 359.627,236.365 359.627,199.473 			"/>
			<polygon fill="#FFFFFF" points="341.803,298.395 359.627,316.218 359.627,280.571 			"/>
			<polygon fill="#FFFFFF" points="322.736,239.432 359.627,276.324 359.627,239.432 			"/>
			<polygon fill="#FFFFFF" points="321.491,240.676 321.491,276.324 339.315,258.5 			"/>
		</g>
	</g>
	<g>
		<path fill="#FFFFFF" d="M39.445,684.718c0-2.739-0.967-4.841-2.9-6.309c-1.934-1.466-5.414-3.013-10.441-4.641
			c-5.027-1.626-9.008-3.23-11.94-4.81c-7.993-4.318-11.988-10.135-11.988-17.451c0-3.802,1.071-7.194,3.215-10.175
			c2.143-2.98,5.221-5.309,9.232-6.985c4.013-1.675,8.516-2.514,13.511-2.514c5.027,0,9.506,0.911,13.438,2.731
			c3.931,1.821,6.985,4.391,9.161,7.71c2.175,3.32,3.263,7.09,3.263,11.312H39.494c0-3.222-1.015-5.729-3.045-7.517
			c-2.03-1.789-4.882-2.683-8.556-2.683c-3.545,0-6.301,0.75-8.266,2.248c-1.966,1.499-2.949,3.473-2.949,5.922
			c0,2.289,1.152,4.206,3.456,5.752c2.304,1.547,5.696,2.997,10.176,4.351c8.25,2.482,14.26,5.559,18.031,9.233
			s5.656,8.25,5.656,13.729c0,6.091-2.305,10.869-6.913,14.333c-4.609,3.464-10.813,5.196-18.611,5.196
			c-5.414,0-10.345-0.991-14.792-2.973c-4.447-1.982-7.839-4.697-10.176-8.146C1.167,689.584,0,685.588,0,681.044h14.55
			c0,7.767,4.641,11.65,13.922,11.65c3.448,0,6.139-0.701,8.073-2.103C38.479,689.189,39.445,687.231,39.445,684.718z"/>
		<path fill="#FFFFFF" d="M118.274,644.547h-21.56v58.636H82.212v-58.636h-21.27v-11.747h57.331V644.547z"/>
		<path fill="#FFFFFF" d="M184.486,669.587c0,6.929-1.225,13.003-3.674,18.224c-2.45,5.221-5.954,9.25-10.514,12.085
			c-4.561,2.836-9.789,4.254-15.687,4.254c-5.833,0-11.038-1.402-15.614-4.206c-4.577-2.804-8.121-6.808-10.635-12.012
			c-2.514-5.204-3.787-11.191-3.819-17.958v-3.48c0-6.928,1.249-13.028,3.746-18.296c2.497-5.27,6.026-9.313,10.587-12.134
			c4.56-2.819,9.772-4.229,15.638-4.229c5.865,0,11.077,1.41,15.638,4.229c4.56,2.821,8.089,6.864,10.587,12.134
			c2.497,5.269,3.746,11.352,3.746,18.248V669.587z M169.791,666.397c0-7.379-1.322-12.987-3.964-16.822
			c-2.643-3.834-6.414-5.752-11.312-5.752c-4.867,0-8.621,1.894-11.263,5.68c-2.643,3.788-3.98,9.338-4.012,16.653v3.432
			c0,7.187,1.321,12.762,3.964,16.726c2.642,3.964,6.445,5.946,11.408,5.946c4.866,0,8.604-1.909,11.215-5.729
			c2.61-3.818,3.931-9.385,3.964-16.701V666.397z"/>
		<path fill="#FFFFFF" d="M251.762,679.739c-0.548,7.574-3.344,13.535-8.387,17.886c-5.044,4.351-11.69,6.526-19.94,6.526
			c-9.024,0-16.122-3.037-21.293-9.112c-5.173-6.074-7.759-14.413-7.759-25.016v-4.302c0-6.768,1.192-12.729,3.577-17.886
			c2.384-5.156,5.792-9.112,10.224-11.868c4.431-2.755,9.579-4.133,15.445-4.133c8.121,0,14.663,2.175,19.626,6.526
			c4.962,4.351,7.831,10.458,8.604,18.321h-14.502c-0.355-4.544-1.62-7.838-3.794-9.886c-2.176-2.046-5.487-3.069-9.934-3.069
			c-4.834,0-8.452,1.733-10.852,5.196c-2.401,3.465-3.634,8.839-3.698,16.122v5.317c0,7.606,1.152,13.165,3.456,16.677
			c2.304,3.513,5.938,5.269,10.901,5.269c4.479,0,7.823-1.022,10.031-3.07c2.207-2.046,3.472-5.212,3.794-9.499H251.762z"/>
		<path fill="#FFFFFF" d="M284.813,674.953l-7.541,8.121v20.109H262.77v-70.383h14.502v31.904l6.381-8.75l17.934-23.155h17.837
			l-24.992,31.276l25.717,39.107h-17.257L284.813,674.953z"/>
		<path fill="#FFFFFF" d="M384.379,703.184h-14.502V673.02h-28.279v30.164h-14.502v-70.383h14.502v28.521h28.279v-28.521h14.502
			V703.184z"/>
		<path fill="#FFFFFF" d="M456.344,669.587c0,6.929-1.226,13.003-3.674,18.224c-2.449,5.221-5.954,9.25-10.514,12.085
			c-4.561,2.836-9.789,4.254-15.687,4.254c-5.833,0-11.038-1.402-15.613-4.206c-4.577-2.804-8.121-6.808-10.636-12.012
			c-2.513-5.204-3.787-11.191-3.818-17.958v-3.48c0-6.928,1.249-13.028,3.746-18.296c2.497-5.27,6.026-9.313,10.587-12.134
			c4.56-2.819,9.771-4.229,15.638-4.229c5.865,0,11.077,1.41,15.638,4.229c4.56,2.821,8.089,6.864,10.587,12.134
			c2.497,5.269,3.746,11.352,3.746,18.248V669.587z M441.648,666.397c0-7.379-1.322-12.987-3.964-16.822
			c-2.643-3.834-6.413-5.752-11.312-5.752c-4.866,0-8.621,1.894-11.263,5.68c-2.644,3.788-3.981,9.338-4.013,16.653v3.432
			c0,7.187,1.321,12.762,3.964,16.726c2.642,3.964,6.445,5.946,11.408,5.946c4.865,0,8.604-1.909,11.215-5.729
			c2.61-3.818,3.932-9.385,3.964-16.701V666.397z"/>
		<path fill="#FFFFFF" d="M482.868,691.534h30.792v11.65h-45.294v-70.383h14.502V691.534z"/>
		<path fill="#FFFFFF" d="M542.41,632.801l18.079,51.047l17.982-51.047h19.046v70.383h-14.55v-19.239l1.449-33.209l-18.997,52.449
			h-9.958l-18.949-52.4l1.45,33.161v19.239h-14.502v-70.383H542.41z"/>
	</g>
</g>
</svg>
